G75*
G70*
%OFA0B0*%
%FSLAX24Y24*%
%IPPOS*%
%LPD*%
%AMOC8*
5,1,8,0,0,1.08239X$1,22.5*
%
%ADD10C,0.0000*%
%ADD11C,0.0740*%
%ADD12OC8,0.0680*%
%ADD13R,0.0650X0.0650*%
%ADD14C,0.0650*%
D10*
X001774Y006171D02*
X020618Y006185D01*
X020691Y006187D01*
X020764Y006193D01*
X020836Y006203D01*
X020908Y006216D01*
X020978Y006233D01*
X021048Y006254D01*
X021117Y006279D01*
X021184Y006308D01*
X021250Y006339D01*
X021314Y006375D01*
X021375Y006413D01*
X021435Y006455D01*
X021493Y006500D01*
X021548Y006548D01*
X021600Y006599D01*
X021649Y006652D01*
X021696Y006708D01*
X021740Y006767D01*
X021780Y006828D01*
X021817Y006890D01*
X021851Y006955D01*
X021881Y007021D01*
X021908Y007089D01*
X021931Y007158D01*
X021951Y007229D01*
X021966Y007300D01*
X021978Y007372D01*
X021986Y007444D01*
X021990Y007517D01*
X021991Y007590D01*
X021991Y007591D02*
X021987Y028255D01*
X021990Y028330D01*
X021989Y028405D01*
X021984Y028479D01*
X021976Y028553D01*
X021964Y028627D01*
X021949Y028700D01*
X021930Y028772D01*
X021907Y028844D01*
X021881Y028914D01*
X021851Y028982D01*
X021818Y029049D01*
X021782Y029114D01*
X021742Y029178D01*
X021700Y029239D01*
X021654Y029299D01*
X021606Y029355D01*
X021555Y029410D01*
X021501Y029462D01*
X021445Y029511D01*
X021386Y029557D01*
X021325Y029600D01*
X021262Y029641D01*
X021197Y029678D01*
X021131Y029711D01*
X021062Y029742D01*
X020993Y029769D01*
X020922Y029792D01*
X020850Y029812D01*
X020777Y029829D01*
X020703Y029842D01*
X020629Y029851D01*
X020555Y029856D01*
X020480Y029858D01*
X002025Y029833D01*
X001945Y029831D01*
X001865Y029825D01*
X001785Y029815D01*
X001706Y029801D01*
X001628Y029783D01*
X001551Y029762D01*
X001474Y029737D01*
X001399Y029708D01*
X001326Y029676D01*
X001254Y029640D01*
X001184Y029601D01*
X001116Y029559D01*
X001050Y029513D01*
X000986Y029464D01*
X000925Y029412D01*
X000866Y029358D01*
X000810Y029300D01*
X000757Y029240D01*
X000706Y029177D01*
X000659Y029113D01*
X000615Y029045D01*
X000575Y028976D01*
X000537Y028905D01*
X000503Y028832D01*
X000473Y028758D01*
X000446Y028682D01*
X000423Y028605D01*
X000404Y028528D01*
X000388Y028449D01*
X000377Y028369D01*
X000369Y028290D01*
X000365Y028209D01*
X000364Y028129D01*
X000364Y028130D02*
X000356Y007567D01*
X000859Y008760D02*
X000861Y008810D01*
X000867Y008860D01*
X000877Y008910D01*
X000890Y008958D01*
X000907Y009006D01*
X000928Y009052D01*
X000952Y009096D01*
X000980Y009138D01*
X001011Y009178D01*
X001045Y009215D01*
X001082Y009250D01*
X001121Y009281D01*
X001162Y009310D01*
X001206Y009335D01*
X001252Y009357D01*
X001299Y009375D01*
X001347Y009389D01*
X001396Y009400D01*
X001446Y009407D01*
X001496Y009410D01*
X001547Y009409D01*
X001597Y009404D01*
X001647Y009395D01*
X001695Y009383D01*
X001743Y009366D01*
X001789Y009346D01*
X001834Y009323D01*
X001877Y009296D01*
X001917Y009266D01*
X001955Y009233D01*
X001990Y009197D01*
X002023Y009158D01*
X002052Y009117D01*
X002078Y009074D01*
X002101Y009029D01*
X002120Y008982D01*
X002135Y008934D01*
X002147Y008885D01*
X002155Y008835D01*
X002159Y008785D01*
X002159Y008735D01*
X002155Y008685D01*
X002147Y008635D01*
X002135Y008586D01*
X002120Y008538D01*
X002101Y008491D01*
X002078Y008446D01*
X002052Y008403D01*
X002023Y008362D01*
X001990Y008323D01*
X001955Y008287D01*
X001917Y008254D01*
X001877Y008224D01*
X001834Y008197D01*
X001789Y008174D01*
X001743Y008154D01*
X001695Y008137D01*
X001647Y008125D01*
X001597Y008116D01*
X001547Y008111D01*
X001496Y008110D01*
X001446Y008113D01*
X001396Y008120D01*
X001347Y008131D01*
X001299Y008145D01*
X001252Y008163D01*
X001206Y008185D01*
X001162Y008210D01*
X001121Y008239D01*
X001082Y008270D01*
X001045Y008305D01*
X001011Y008342D01*
X000980Y008382D01*
X000952Y008424D01*
X000928Y008468D01*
X000907Y008514D01*
X000890Y008562D01*
X000877Y008610D01*
X000867Y008660D01*
X000861Y008710D01*
X000859Y008760D01*
X000356Y007567D02*
X000358Y007493D01*
X000364Y007419D01*
X000373Y007346D01*
X000387Y007273D01*
X000404Y007202D01*
X000426Y007131D01*
X000450Y007061D01*
X000479Y006993D01*
X000511Y006927D01*
X000547Y006862D01*
X000585Y006799D01*
X000628Y006739D01*
X000673Y006680D01*
X000721Y006624D01*
X000773Y006571D01*
X000827Y006521D01*
X000883Y006473D01*
X000942Y006429D01*
X001003Y006388D01*
X001067Y006350D01*
X001132Y006315D01*
X001199Y006284D01*
X001268Y006257D01*
X001337Y006233D01*
X001409Y006213D01*
X001481Y006197D01*
X001553Y006184D01*
X001627Y006176D01*
X001700Y006171D01*
X001774Y006170D01*
X017859Y028760D02*
X017861Y028810D01*
X017867Y028860D01*
X017877Y028910D01*
X017890Y028958D01*
X017907Y029006D01*
X017928Y029052D01*
X017952Y029096D01*
X017980Y029138D01*
X018011Y029178D01*
X018045Y029215D01*
X018082Y029250D01*
X018121Y029281D01*
X018162Y029310D01*
X018206Y029335D01*
X018252Y029357D01*
X018299Y029375D01*
X018347Y029389D01*
X018396Y029400D01*
X018446Y029407D01*
X018496Y029410D01*
X018547Y029409D01*
X018597Y029404D01*
X018647Y029395D01*
X018695Y029383D01*
X018743Y029366D01*
X018789Y029346D01*
X018834Y029323D01*
X018877Y029296D01*
X018917Y029266D01*
X018955Y029233D01*
X018990Y029197D01*
X019023Y029158D01*
X019052Y029117D01*
X019078Y029074D01*
X019101Y029029D01*
X019120Y028982D01*
X019135Y028934D01*
X019147Y028885D01*
X019155Y028835D01*
X019159Y028785D01*
X019159Y028735D01*
X019155Y028685D01*
X019147Y028635D01*
X019135Y028586D01*
X019120Y028538D01*
X019101Y028491D01*
X019078Y028446D01*
X019052Y028403D01*
X019023Y028362D01*
X018990Y028323D01*
X018955Y028287D01*
X018917Y028254D01*
X018877Y028224D01*
X018834Y028197D01*
X018789Y028174D01*
X018743Y028154D01*
X018695Y028137D01*
X018647Y028125D01*
X018597Y028116D01*
X018547Y028111D01*
X018496Y028110D01*
X018446Y028113D01*
X018396Y028120D01*
X018347Y028131D01*
X018299Y028145D01*
X018252Y028163D01*
X018206Y028185D01*
X018162Y028210D01*
X018121Y028239D01*
X018082Y028270D01*
X018045Y028305D01*
X018011Y028342D01*
X017980Y028382D01*
X017952Y028424D01*
X017928Y028468D01*
X017907Y028514D01*
X017890Y028562D01*
X017877Y028610D01*
X017867Y028660D01*
X017861Y028710D01*
X017859Y028760D01*
D11*
X020509Y027760D03*
X020509Y026760D03*
X020509Y025760D03*
X020509Y024760D03*
X020509Y023760D03*
X020509Y022760D03*
X020509Y020760D03*
X020509Y019760D03*
X020509Y018760D03*
X020509Y017760D03*
X020509Y016760D03*
X020509Y015760D03*
X016569Y022212D03*
X012925Y025932D03*
X012889Y027331D03*
X012885Y028669D03*
X010138Y023785D03*
X010138Y022785D03*
X008925Y025932D03*
X008889Y027331D03*
X008885Y028669D03*
X007200Y023618D03*
X007200Y022618D03*
X004104Y022571D03*
X004104Y023571D03*
X001509Y023760D03*
X001509Y024760D03*
X001509Y025760D03*
X001509Y026760D03*
X001509Y027760D03*
X001509Y022760D03*
X001509Y021760D03*
X001509Y020760D03*
X001509Y019260D03*
X001509Y018260D03*
X001509Y017260D03*
X001509Y016260D03*
X001509Y015260D03*
X001509Y014260D03*
X001509Y013260D03*
X001509Y012260D03*
X012556Y019604D03*
X012556Y020604D03*
X012569Y022212D03*
D12*
X013009Y016274D03*
X013009Y015274D03*
X013009Y014274D03*
X013009Y013274D03*
X010009Y013274D03*
X010009Y014274D03*
X010009Y015274D03*
X010009Y016274D03*
D13*
X017548Y015964D03*
D14*
X017548Y016964D03*
M02*
