%
M48
M72
T01C0.0276
T02C0.0320
T03C0.0354
T04C0.0400
T05C0.1300
%
T01
X17548Y15964
X17548Y16964
T02
X13009Y16274
X13009Y15274
X13009Y14274
X13009Y13274
X10009Y13274
X10009Y14274
X10009Y15274
X10009Y16274
X12556Y19604
X12556Y20604
X10138Y22785
X10138Y23785
X7200Y23618
X7200Y22618
X4104Y22571
X4104Y23571
T03
X8925Y25932
X8889Y27331
X8885Y28669
X12885Y28669
X12889Y27331
X12925Y25932
X12569Y22212
X16569Y22212
T04
X20509Y22760
X20509Y23760
X20509Y24760
X20509Y25760
X20509Y26760
X20509Y27760
X20509Y20760
X20509Y19760
X20509Y18760
X20509Y17760
X20509Y16760
X20509Y15760
X1509Y16260
X1509Y17260
X1509Y18260
X1509Y19260
X1509Y20760
X1509Y21760
X1509Y22760
X1509Y23760
X1509Y24760
X1509Y25760
X1509Y26760
X1509Y27760
X1509Y15260
X1509Y14260
X1509Y13260
X1509Y12260
T05
X1509Y8760
X18509Y28760
M30
