G75*
G70*
%OFA0B0*%
%FSLAX24Y24*%
%IPPOS*%
%LPD*%
%AMOC8*
5,1,8,0,0,1.08239X$1,22.5*
%
%ADD10C,0.0040*%
%ADD11C,0.0030*%
%ADD12C,0.0060*%
%ADD13C,0.0080*%
%ADD14C,0.0100*%
%ADD15C,0.0059*%
%ADD16C,0.0050*%
%ADD17C,0.0010*%
D10*
X005524Y006994D02*
X005371Y007148D01*
X005524Y007301D01*
X005831Y007301D01*
X005601Y007301D02*
X005601Y006994D01*
X005524Y006994D02*
X005831Y006994D01*
X005831Y007608D02*
X005371Y007608D01*
X005371Y007455D02*
X005371Y007762D01*
X005524Y007915D02*
X005524Y008069D01*
X005448Y007992D02*
X005754Y007992D01*
X005831Y008069D01*
X005831Y008222D02*
X005831Y008376D01*
X005831Y008299D02*
X005524Y008299D01*
X005524Y008222D01*
X005371Y008299D02*
X005294Y008299D01*
X005524Y008529D02*
X005524Y008759D01*
X005601Y008836D01*
X005831Y008836D01*
X005754Y008989D02*
X005831Y009066D01*
X005831Y009296D01*
X005908Y009296D02*
X005985Y009219D01*
X005985Y009143D01*
X005908Y009296D02*
X005524Y009296D01*
X005524Y008989D02*
X005754Y008989D01*
X005831Y008529D02*
X005524Y008529D01*
X005601Y009910D02*
X005601Y010217D01*
X005601Y010370D02*
X005524Y010524D01*
X005524Y010601D01*
X005601Y010677D01*
X005754Y010677D01*
X005831Y010601D01*
X005831Y010447D01*
X005754Y010370D01*
X005601Y010370D02*
X005371Y010370D01*
X005371Y010677D01*
X005371Y010140D02*
X005601Y009910D01*
X005831Y010140D02*
X005371Y010140D01*
X005754Y011291D02*
X005678Y011368D01*
X005678Y011598D01*
X005601Y011598D02*
X005831Y011598D01*
X005831Y011368D01*
X005754Y011291D01*
X005524Y011368D02*
X005524Y011521D01*
X005601Y011598D01*
X005524Y011751D02*
X005524Y011982D01*
X005601Y012058D01*
X005831Y012058D01*
X005754Y012212D02*
X005831Y012289D01*
X005831Y012519D01*
X005371Y012519D01*
X005524Y012519D02*
X005524Y012289D01*
X005601Y012212D01*
X005754Y012212D01*
X005831Y011751D02*
X005524Y011751D01*
X005524Y013133D02*
X005448Y013133D01*
X005371Y013209D01*
X005371Y013363D01*
X005448Y013439D01*
X005524Y013439D01*
X005601Y013363D01*
X005601Y013209D01*
X005524Y013133D01*
X005601Y013209D02*
X005678Y013133D01*
X005754Y013133D01*
X005831Y013209D01*
X005831Y013363D01*
X005754Y013439D01*
X005678Y013439D01*
X005601Y013363D01*
X005601Y013593D02*
X005524Y013746D01*
X005524Y013823D01*
X005601Y013900D01*
X005754Y013900D01*
X005831Y013823D01*
X005831Y013670D01*
X005754Y013593D01*
X005601Y013593D02*
X005371Y013593D01*
X005371Y013900D01*
X005371Y014514D02*
X005371Y014744D01*
X005448Y014820D01*
X005601Y014820D01*
X005678Y014744D01*
X005678Y014514D01*
X005831Y014514D02*
X005371Y014514D01*
X005524Y014974D02*
X005831Y014974D01*
X005678Y014974D02*
X005524Y015127D01*
X005524Y015204D01*
X005601Y015358D02*
X005524Y015434D01*
X005524Y015588D01*
X005601Y015664D01*
X005754Y015664D01*
X005831Y015588D01*
X005831Y015434D01*
X005754Y015358D01*
X005601Y015358D01*
X005601Y015818D02*
X005524Y015895D01*
X005524Y016125D01*
X005908Y016125D01*
X005985Y016048D01*
X005985Y015971D01*
X005831Y015895D02*
X005831Y016125D01*
X005831Y016278D02*
X005524Y016278D01*
X005524Y016432D02*
X005524Y016508D01*
X005524Y016432D02*
X005678Y016278D01*
X005754Y016662D02*
X005678Y016739D01*
X005678Y016969D01*
X005601Y016969D02*
X005831Y016969D01*
X005831Y016739D01*
X005754Y016662D01*
X005524Y016739D02*
X005524Y016892D01*
X005601Y016969D01*
X005524Y017122D02*
X005524Y017199D01*
X005601Y017276D01*
X005524Y017352D01*
X005601Y017429D01*
X005831Y017429D01*
X005831Y017276D02*
X005601Y017276D01*
X005524Y017122D02*
X005831Y017122D01*
X005831Y017583D02*
X005524Y017583D01*
X005524Y017659D01*
X005601Y017736D01*
X005524Y017813D01*
X005601Y017889D01*
X005831Y017889D01*
X005831Y017736D02*
X005601Y017736D01*
X005601Y018043D02*
X005524Y018120D01*
X005524Y018273D01*
X005601Y018350D01*
X005678Y018350D01*
X005678Y018043D01*
X005754Y018043D02*
X005601Y018043D01*
X005754Y018043D02*
X005831Y018120D01*
X005831Y018273D01*
X005831Y018503D02*
X005524Y018503D01*
X005524Y018657D02*
X005524Y018733D01*
X005524Y018657D02*
X005678Y018503D01*
X005754Y019347D02*
X005831Y019424D01*
X005831Y019577D01*
X005754Y019654D01*
X005678Y019654D01*
X005601Y019577D01*
X005601Y019424D01*
X005524Y019347D01*
X005448Y019347D01*
X005371Y019424D01*
X005371Y019577D01*
X005448Y019654D01*
X005371Y019808D02*
X005831Y019808D01*
X005601Y019808D02*
X005524Y019884D01*
X005524Y020038D01*
X005601Y020115D01*
X005831Y020115D01*
X005831Y020268D02*
X005831Y020421D01*
X005831Y020345D02*
X005524Y020345D01*
X005524Y020268D01*
X005371Y020345D02*
X005294Y020345D01*
X005524Y020652D02*
X005524Y020805D01*
X005601Y020882D01*
X005678Y020882D01*
X005678Y020575D01*
X005754Y020575D02*
X005601Y020575D01*
X005524Y020652D01*
X005754Y020575D02*
X005831Y020652D01*
X005831Y020805D01*
X005831Y021035D02*
X005831Y021189D01*
X005831Y021112D02*
X005371Y021112D01*
X005371Y021035D01*
X005601Y021342D02*
X005524Y021419D01*
X005524Y021649D01*
X005371Y021649D02*
X005831Y021649D01*
X005831Y021419D01*
X005754Y021342D01*
X005601Y021342D01*
X007714Y018743D02*
X007714Y018513D01*
X007791Y018436D01*
X007868Y018513D01*
X007868Y018666D01*
X007945Y018743D01*
X008021Y018666D01*
X008021Y018436D01*
X007868Y018282D02*
X007791Y018282D01*
X007714Y018206D01*
X007714Y018052D01*
X007791Y017976D01*
X007945Y017976D01*
X008021Y018052D01*
X008021Y018206D01*
X007868Y018282D02*
X007868Y017976D01*
X008021Y017822D02*
X008021Y017669D01*
X008021Y017745D02*
X007714Y017745D01*
X007714Y017669D01*
X007714Y017515D02*
X007714Y017439D01*
X007868Y017285D01*
X008021Y017285D02*
X007714Y017285D01*
X007714Y017132D02*
X007714Y016978D01*
X007638Y017055D02*
X007945Y017055D01*
X008021Y017132D01*
X007945Y016825D02*
X007868Y016748D01*
X007868Y016595D01*
X007791Y016518D01*
X007714Y016595D01*
X007714Y016825D01*
X007945Y016825D02*
X008021Y016748D01*
X008021Y016518D01*
X008021Y016364D02*
X007714Y016364D01*
X007714Y016057D02*
X007945Y016057D01*
X008021Y016134D01*
X008021Y016364D01*
X008021Y015904D02*
X007561Y015904D01*
X007714Y015904D02*
X007714Y015674D01*
X007791Y015597D01*
X007945Y015597D01*
X008021Y015674D01*
X008021Y015904D01*
X008021Y015444D02*
X007791Y015444D01*
X007714Y015367D01*
X007714Y015137D01*
X008021Y015137D01*
X008021Y014983D02*
X008021Y014830D01*
X008021Y014907D02*
X007561Y014907D01*
X007561Y014983D02*
X007561Y014830D01*
X007093Y014835D02*
X007093Y014758D01*
X007093Y014835D02*
X007016Y014912D01*
X006633Y014912D01*
X006633Y014605D02*
X006863Y014605D01*
X006940Y014682D01*
X006940Y014912D01*
X006863Y014451D02*
X006710Y014451D01*
X006633Y014375D01*
X006633Y014145D01*
X006479Y014145D02*
X006940Y014145D01*
X006940Y014375D01*
X006863Y014451D01*
X007561Y013909D02*
X008021Y013909D01*
X008021Y013756D02*
X008021Y013526D01*
X007945Y013449D01*
X007791Y013449D01*
X007714Y013526D01*
X007714Y013756D01*
X007791Y013909D02*
X007714Y013986D01*
X007714Y014139D01*
X007791Y014216D01*
X008021Y014216D01*
X008485Y014171D02*
X008561Y014171D01*
X008715Y014171D02*
X008715Y014095D01*
X008715Y014171D02*
X009022Y014171D01*
X009022Y014095D02*
X009022Y014248D01*
X008945Y014402D02*
X009022Y014478D01*
X009022Y014632D01*
X008945Y014708D01*
X008792Y014708D01*
X008715Y014632D01*
X008715Y014478D01*
X008792Y014402D01*
X008945Y014402D01*
X008945Y013941D02*
X008868Y013864D01*
X008868Y013711D01*
X008792Y013634D01*
X008715Y013711D01*
X008715Y013941D01*
X008945Y013941D02*
X009022Y013864D01*
X009022Y013634D01*
X008715Y013481D02*
X008715Y013404D01*
X008868Y013251D01*
X008715Y013251D02*
X009022Y013251D01*
X008868Y013097D02*
X008868Y012790D01*
X008792Y012790D02*
X008715Y012867D01*
X008715Y013021D01*
X008792Y013097D01*
X008868Y013097D01*
X009022Y013021D02*
X009022Y012867D01*
X008945Y012790D01*
X008792Y012790D01*
X008868Y012637D02*
X008561Y012637D01*
X008868Y012637D02*
X009022Y012483D01*
X008868Y012330D01*
X008561Y012330D01*
X008098Y011454D02*
X007714Y011454D01*
X007714Y011224D01*
X007791Y011147D01*
X007945Y011147D01*
X008021Y011224D01*
X008021Y011454D01*
X008098Y011454D02*
X008175Y011377D01*
X008175Y011300D01*
X008021Y010994D02*
X008021Y010840D01*
X008021Y010917D02*
X007714Y010917D01*
X007714Y010840D01*
X007714Y010687D02*
X007714Y010456D01*
X007791Y010380D01*
X007868Y010456D01*
X007868Y010610D01*
X007945Y010687D01*
X008021Y010610D01*
X008021Y010380D01*
X007868Y010226D02*
X007868Y009919D01*
X007945Y009919D02*
X007791Y009919D01*
X007714Y009996D01*
X007714Y010150D01*
X007791Y010226D01*
X007868Y010226D01*
X008021Y010150D02*
X008021Y009996D01*
X007945Y009919D01*
X007945Y009766D02*
X007638Y009766D01*
X007561Y009689D01*
X007561Y009459D01*
X008021Y009459D01*
X008021Y009689D01*
X007945Y009766D01*
X007561Y010917D02*
X007484Y010917D01*
X007714Y011607D02*
X007714Y011838D01*
X007791Y011914D01*
X008021Y011914D01*
X008021Y011607D02*
X007714Y011607D01*
X007561Y012528D02*
X007561Y012835D01*
X007561Y012682D02*
X008021Y012682D01*
X007945Y012988D02*
X007791Y012988D01*
X007714Y013065D01*
X007714Y013219D01*
X007791Y013295D01*
X007868Y013295D01*
X007868Y012988D01*
X007945Y012988D02*
X008021Y013065D01*
X008021Y013219D01*
X008715Y014862D02*
X008715Y015092D01*
X008792Y015169D01*
X009022Y015169D01*
X009022Y014862D02*
X008715Y014862D01*
X008715Y015783D02*
X008561Y015936D01*
X009022Y015936D01*
X009022Y015783D02*
X009022Y016090D01*
X009022Y016243D02*
X009022Y016320D01*
X008945Y016320D01*
X008945Y016243D01*
X009022Y016243D01*
X009022Y016473D02*
X008715Y016780D01*
X008638Y016780D01*
X008561Y016703D01*
X008561Y016550D01*
X008638Y016473D01*
X009022Y016473D02*
X009022Y016780D01*
X007561Y017745D02*
X007484Y017745D01*
X005831Y015895D02*
X005754Y015818D01*
X005601Y015818D01*
X009792Y019576D02*
X010312Y019576D01*
X010312Y019923D01*
X010312Y020092D02*
X009965Y020092D01*
X009965Y020266D02*
X009965Y020352D01*
X009965Y020266D02*
X010139Y020092D01*
X010052Y019750D02*
X010052Y019576D01*
X009792Y019576D02*
X009792Y019923D01*
X009965Y020522D02*
X010312Y020522D01*
X010139Y020522D02*
X009965Y020695D01*
X009965Y020782D01*
X010052Y020951D02*
X009965Y021038D01*
X009965Y021212D01*
X010052Y021298D01*
X010225Y021298D01*
X010312Y021212D01*
X010312Y021038D01*
X010225Y020951D01*
X010052Y020951D01*
X010139Y021467D02*
X009965Y021641D01*
X009965Y021727D01*
X009965Y021467D02*
X010312Y021467D01*
X007460Y024348D02*
X006940Y024348D01*
X006940Y024608D01*
X007026Y024695D01*
X007200Y024695D01*
X007287Y024608D01*
X007287Y024348D01*
X007287Y024864D02*
X007113Y025037D01*
X007113Y025124D01*
X007200Y025293D02*
X007113Y025380D01*
X007113Y025554D01*
X007200Y025640D01*
X007373Y025640D01*
X007460Y025554D01*
X007460Y025380D01*
X007373Y025293D01*
X007200Y025293D01*
X007200Y025809D02*
X007373Y025809D01*
X007460Y025896D01*
X007460Y026156D01*
X007547Y026156D02*
X007113Y026156D01*
X007113Y025896D01*
X007200Y025809D01*
X007547Y026156D02*
X007633Y026069D01*
X007633Y025983D01*
X007460Y026325D02*
X007113Y026325D01*
X007113Y026498D02*
X007113Y026585D01*
X007113Y026498D02*
X007287Y026325D01*
X007373Y026754D02*
X007287Y026841D01*
X007287Y027101D01*
X007200Y027101D02*
X007460Y027101D01*
X007460Y026841D01*
X007373Y026754D01*
X007113Y026841D02*
X007113Y027015D01*
X007200Y027101D01*
X007113Y027270D02*
X007113Y027357D01*
X007200Y027444D01*
X007113Y027530D01*
X007200Y027617D01*
X007460Y027617D01*
X007460Y027786D02*
X007113Y027786D01*
X007113Y027872D01*
X007200Y027959D01*
X007113Y028046D01*
X007200Y028133D01*
X007460Y028133D01*
X007460Y028301D02*
X007460Y028475D01*
X007460Y028388D02*
X007113Y028388D01*
X007113Y028301D01*
X006940Y028388D02*
X006853Y028388D01*
X007113Y028645D02*
X007113Y028905D01*
X007200Y028992D01*
X007460Y028992D01*
X007373Y029161D02*
X007460Y029247D01*
X007460Y029508D01*
X007547Y029508D02*
X007113Y029508D01*
X007113Y029247D01*
X007200Y029161D01*
X007373Y029161D01*
X007633Y029334D02*
X007633Y029421D01*
X007547Y029508D01*
X007460Y028645D02*
X007113Y028645D01*
X007200Y027959D02*
X007460Y027959D01*
X007460Y027444D02*
X007200Y027444D01*
X007113Y027270D02*
X007460Y027270D01*
X007460Y024864D02*
X007113Y024864D01*
X004306Y024931D02*
X004219Y024845D01*
X004046Y024845D01*
X003959Y024931D01*
X003959Y025105D01*
X004046Y025192D01*
X004133Y025192D01*
X004133Y024845D01*
X004046Y024676D02*
X004046Y024329D01*
X004306Y024329D02*
X003786Y024329D01*
X003786Y024676D02*
X004306Y024676D01*
X004306Y024931D02*
X004306Y025105D01*
X004219Y025360D02*
X004133Y025447D01*
X004133Y025707D01*
X004046Y025707D02*
X004306Y025707D01*
X004306Y025447D01*
X004219Y025360D01*
X003959Y025447D02*
X003959Y025621D01*
X004046Y025707D01*
X004133Y025876D02*
X003959Y026049D01*
X003959Y026136D01*
X003959Y026306D02*
X003959Y026479D01*
X003872Y026392D02*
X004219Y026392D01*
X004306Y026479D01*
X004306Y026649D02*
X004306Y026910D01*
X004219Y026996D01*
X004046Y026996D01*
X003959Y026910D01*
X003959Y026649D01*
X003786Y026649D02*
X004306Y026649D01*
X004219Y027165D02*
X004046Y027165D01*
X003959Y027252D01*
X003959Y027425D01*
X004046Y027512D01*
X004133Y027512D01*
X004133Y027165D01*
X004219Y027165D02*
X004306Y027252D01*
X004306Y027425D01*
X004219Y027681D02*
X004133Y027767D01*
X004133Y028028D01*
X004046Y028028D02*
X004306Y028028D01*
X004306Y027767D01*
X004219Y027681D01*
X003959Y027767D02*
X003959Y027941D01*
X004046Y028028D01*
X003959Y028196D02*
X003959Y028370D01*
X003872Y028283D02*
X004219Y028283D01*
X004306Y028370D01*
X004306Y025876D02*
X003959Y025876D01*
X013568Y013553D02*
X013645Y013553D01*
X013798Y013553D02*
X014105Y013553D01*
X014105Y013476D02*
X014105Y013630D01*
X014105Y013783D02*
X013798Y013783D01*
X013798Y014013D01*
X013875Y014090D01*
X014105Y014090D01*
X014029Y014244D02*
X014105Y014320D01*
X014105Y014550D01*
X014182Y014550D02*
X014259Y014474D01*
X014259Y014397D01*
X014182Y014550D02*
X013798Y014550D01*
X013798Y014244D02*
X014029Y014244D01*
X013798Y013553D02*
X013798Y013476D01*
X013798Y013323D02*
X013798Y013169D01*
X013722Y013246D02*
X014029Y013246D01*
X014105Y013323D01*
X014105Y012863D02*
X013645Y012863D01*
X013645Y013016D02*
X013645Y012709D01*
X013798Y012556D02*
X014105Y012556D01*
X013875Y012556D02*
X013875Y012249D01*
X013798Y012249D02*
X013645Y012402D01*
X013798Y012556D01*
X013798Y012249D02*
X014105Y012249D01*
X013875Y015164D02*
X013875Y015471D01*
X013875Y015625D02*
X013798Y015778D01*
X013798Y015855D01*
X013875Y015932D01*
X014029Y015932D01*
X014105Y015855D01*
X014105Y015701D01*
X014029Y015625D01*
X013875Y015625D02*
X013645Y015625D01*
X013645Y015932D01*
X013645Y015394D02*
X013875Y015164D01*
X014105Y015394D02*
X013645Y015394D01*
X014105Y016085D02*
X013645Y016392D01*
X013722Y016545D02*
X013798Y016545D01*
X013875Y016622D01*
X013875Y016776D01*
X013952Y016852D01*
X014029Y016852D01*
X014105Y016776D01*
X014105Y016622D01*
X014029Y016545D01*
X013952Y016545D01*
X013875Y016622D01*
X013875Y016776D02*
X013798Y016852D01*
X013722Y016852D01*
X013645Y016776D01*
X013645Y016622D01*
X013722Y016545D01*
X013645Y017006D02*
X013875Y017006D01*
X013798Y017159D01*
X013798Y017236D01*
X013875Y017313D01*
X014029Y017313D01*
X014105Y017236D01*
X014105Y017082D01*
X014029Y017006D01*
X013645Y017006D02*
X013645Y017313D01*
X018778Y012027D02*
X018701Y011950D01*
X018701Y011797D01*
X018778Y011720D01*
X019085Y011720D01*
X018778Y012027D01*
X019085Y012027D01*
X019162Y011950D01*
X019162Y011797D01*
X019085Y011720D01*
X019085Y011566D02*
X019162Y011566D01*
X019162Y011490D01*
X019085Y011490D01*
X019085Y011566D01*
X019085Y011336D02*
X019162Y011259D01*
X019162Y011106D01*
X019085Y011029D01*
X018931Y011183D02*
X018931Y011259D01*
X019008Y011336D01*
X019085Y011336D01*
X018931Y011259D02*
X018855Y011336D01*
X018778Y011336D01*
X018701Y011259D01*
X018701Y011106D01*
X018778Y011029D01*
X018855Y010416D02*
X018701Y010262D01*
X018855Y010109D01*
X019162Y010109D01*
X019085Y009955D02*
X019162Y009878D01*
X019162Y009725D01*
X019085Y009648D01*
X018931Y009725D02*
X018931Y009878D01*
X019008Y009955D01*
X019085Y009955D01*
X018931Y010109D02*
X018931Y010416D01*
X018855Y010416D02*
X019162Y010416D01*
X018778Y009955D02*
X018701Y009878D01*
X018701Y009725D01*
X018778Y009648D01*
X018855Y009648D01*
X018931Y009725D01*
X018931Y009495D02*
X018931Y009188D01*
X018778Y009034D02*
X018701Y009034D01*
X018778Y009034D02*
X018931Y008881D01*
X019162Y008881D01*
X018931Y008881D02*
X018778Y008728D01*
X018701Y008728D01*
X018778Y008574D02*
X018701Y008497D01*
X018701Y008267D01*
X019162Y008267D01*
X019162Y008497D01*
X019085Y008574D01*
X019008Y008574D01*
X018931Y008497D01*
X018931Y008267D01*
X018931Y008497D02*
X018855Y008574D01*
X018778Y008574D01*
X018778Y007653D02*
X018701Y007577D01*
X018701Y007423D01*
X018778Y007346D01*
X019085Y007346D01*
X019162Y007423D01*
X019162Y007577D01*
X019085Y007653D01*
X019085Y007193D02*
X019162Y007116D01*
X019162Y006963D01*
X019085Y006886D01*
X018778Y006886D01*
X018701Y006963D01*
X018701Y007116D01*
X018778Y007193D01*
D11*
X014408Y018825D02*
X014117Y018825D01*
X014117Y018970D01*
X014166Y019019D01*
X014263Y019019D01*
X014311Y018970D01*
X014311Y018825D01*
X014214Y019120D02*
X014214Y019168D01*
X014408Y019168D01*
X014408Y019120D02*
X014408Y019216D01*
X014408Y019316D02*
X014214Y019316D01*
X014214Y019461D01*
X014263Y019510D01*
X014408Y019510D01*
X014117Y019168D02*
X014069Y019168D01*
X014166Y019905D02*
X014117Y019954D01*
X014117Y020051D01*
X014166Y020099D01*
X014359Y019905D01*
X014408Y019954D01*
X014408Y020051D01*
X014359Y020099D01*
X014166Y020099D01*
X014166Y019905D02*
X014359Y019905D01*
X014408Y020495D02*
X014117Y020495D01*
X014408Y020495D02*
X014408Y020688D01*
X014408Y020789D02*
X014117Y020789D01*
X014117Y020983D01*
X014117Y021084D02*
X014117Y021229D01*
X014166Y021277D01*
X014359Y021277D01*
X014408Y021229D01*
X014408Y021084D01*
X014117Y021084D01*
X014263Y020886D02*
X014263Y020789D01*
X014408Y020789D02*
X014408Y020983D01*
D12*
X011556Y020104D02*
X011558Y020167D01*
X011564Y020229D01*
X011574Y020291D01*
X011587Y020353D01*
X011605Y020413D01*
X011626Y020472D01*
X011651Y020530D01*
X011680Y020586D01*
X011712Y020640D01*
X011747Y020692D01*
X011785Y020741D01*
X011827Y020789D01*
X011871Y020833D01*
X011919Y020875D01*
X011968Y020913D01*
X012020Y020948D01*
X012074Y020980D01*
X012130Y021009D01*
X012188Y021034D01*
X012247Y021055D01*
X012307Y021073D01*
X012369Y021086D01*
X012431Y021096D01*
X012493Y021102D01*
X012556Y021104D01*
X012619Y021102D01*
X012681Y021096D01*
X012743Y021086D01*
X012805Y021073D01*
X012865Y021055D01*
X012924Y021034D01*
X012982Y021009D01*
X013038Y020980D01*
X013092Y020948D01*
X013144Y020913D01*
X013193Y020875D01*
X013241Y020833D01*
X013285Y020789D01*
X013327Y020741D01*
X013365Y020692D01*
X013400Y020640D01*
X013432Y020586D01*
X013461Y020530D01*
X013486Y020472D01*
X013507Y020413D01*
X013525Y020353D01*
X013538Y020291D01*
X013548Y020229D01*
X013554Y020167D01*
X013556Y020104D01*
X013554Y020041D01*
X013548Y019979D01*
X013538Y019917D01*
X013525Y019855D01*
X013507Y019795D01*
X013486Y019736D01*
X013461Y019678D01*
X013432Y019622D01*
X013400Y019568D01*
X013365Y019516D01*
X013327Y019467D01*
X013285Y019419D01*
X013241Y019375D01*
X013193Y019333D01*
X013144Y019295D01*
X013092Y019260D01*
X013038Y019228D01*
X012982Y019199D01*
X012924Y019174D01*
X012865Y019153D01*
X012805Y019135D01*
X012743Y019122D01*
X012681Y019112D01*
X012619Y019106D01*
X012556Y019104D01*
X012493Y019106D01*
X012431Y019112D01*
X012369Y019122D01*
X012307Y019135D01*
X012247Y019153D01*
X012188Y019174D01*
X012130Y019199D01*
X012074Y019228D01*
X012020Y019260D01*
X011968Y019295D01*
X011919Y019333D01*
X011871Y019375D01*
X011827Y019419D01*
X011785Y019467D01*
X011747Y019516D01*
X011712Y019568D01*
X011680Y019622D01*
X011651Y019678D01*
X011626Y019736D01*
X011605Y019795D01*
X011587Y019855D01*
X011574Y019917D01*
X011564Y019979D01*
X011558Y020041D01*
X011556Y020104D01*
X009138Y023285D02*
X009140Y023348D01*
X009146Y023410D01*
X009156Y023472D01*
X009169Y023534D01*
X009187Y023594D01*
X009208Y023653D01*
X009233Y023711D01*
X009262Y023767D01*
X009294Y023821D01*
X009329Y023873D01*
X009367Y023922D01*
X009409Y023970D01*
X009453Y024014D01*
X009501Y024056D01*
X009550Y024094D01*
X009602Y024129D01*
X009656Y024161D01*
X009712Y024190D01*
X009770Y024215D01*
X009829Y024236D01*
X009889Y024254D01*
X009951Y024267D01*
X010013Y024277D01*
X010075Y024283D01*
X010138Y024285D01*
X010201Y024283D01*
X010263Y024277D01*
X010325Y024267D01*
X010387Y024254D01*
X010447Y024236D01*
X010506Y024215D01*
X010564Y024190D01*
X010620Y024161D01*
X010674Y024129D01*
X010726Y024094D01*
X010775Y024056D01*
X010823Y024014D01*
X010867Y023970D01*
X010909Y023922D01*
X010947Y023873D01*
X010982Y023821D01*
X011014Y023767D01*
X011043Y023711D01*
X011068Y023653D01*
X011089Y023594D01*
X011107Y023534D01*
X011120Y023472D01*
X011130Y023410D01*
X011136Y023348D01*
X011138Y023285D01*
X011136Y023222D01*
X011130Y023160D01*
X011120Y023098D01*
X011107Y023036D01*
X011089Y022976D01*
X011068Y022917D01*
X011043Y022859D01*
X011014Y022803D01*
X010982Y022749D01*
X010947Y022697D01*
X010909Y022648D01*
X010867Y022600D01*
X010823Y022556D01*
X010775Y022514D01*
X010726Y022476D01*
X010674Y022441D01*
X010620Y022409D01*
X010564Y022380D01*
X010506Y022355D01*
X010447Y022334D01*
X010387Y022316D01*
X010325Y022303D01*
X010263Y022293D01*
X010201Y022287D01*
X010138Y022285D01*
X010075Y022287D01*
X010013Y022293D01*
X009951Y022303D01*
X009889Y022316D01*
X009829Y022334D01*
X009770Y022355D01*
X009712Y022380D01*
X009656Y022409D01*
X009602Y022441D01*
X009550Y022476D01*
X009501Y022514D01*
X009453Y022556D01*
X009409Y022600D01*
X009367Y022648D01*
X009329Y022697D01*
X009294Y022749D01*
X009262Y022803D01*
X009233Y022859D01*
X009208Y022917D01*
X009187Y022976D01*
X009169Y023036D01*
X009156Y023098D01*
X009146Y023160D01*
X009140Y023222D01*
X009138Y023285D01*
X006200Y023118D02*
X006202Y023181D01*
X006208Y023243D01*
X006218Y023305D01*
X006231Y023367D01*
X006249Y023427D01*
X006270Y023486D01*
X006295Y023544D01*
X006324Y023600D01*
X006356Y023654D01*
X006391Y023706D01*
X006429Y023755D01*
X006471Y023803D01*
X006515Y023847D01*
X006563Y023889D01*
X006612Y023927D01*
X006664Y023962D01*
X006718Y023994D01*
X006774Y024023D01*
X006832Y024048D01*
X006891Y024069D01*
X006951Y024087D01*
X007013Y024100D01*
X007075Y024110D01*
X007137Y024116D01*
X007200Y024118D01*
X007263Y024116D01*
X007325Y024110D01*
X007387Y024100D01*
X007449Y024087D01*
X007509Y024069D01*
X007568Y024048D01*
X007626Y024023D01*
X007682Y023994D01*
X007736Y023962D01*
X007788Y023927D01*
X007837Y023889D01*
X007885Y023847D01*
X007929Y023803D01*
X007971Y023755D01*
X008009Y023706D01*
X008044Y023654D01*
X008076Y023600D01*
X008105Y023544D01*
X008130Y023486D01*
X008151Y023427D01*
X008169Y023367D01*
X008182Y023305D01*
X008192Y023243D01*
X008198Y023181D01*
X008200Y023118D01*
X008198Y023055D01*
X008192Y022993D01*
X008182Y022931D01*
X008169Y022869D01*
X008151Y022809D01*
X008130Y022750D01*
X008105Y022692D01*
X008076Y022636D01*
X008044Y022582D01*
X008009Y022530D01*
X007971Y022481D01*
X007929Y022433D01*
X007885Y022389D01*
X007837Y022347D01*
X007788Y022309D01*
X007736Y022274D01*
X007682Y022242D01*
X007626Y022213D01*
X007568Y022188D01*
X007509Y022167D01*
X007449Y022149D01*
X007387Y022136D01*
X007325Y022126D01*
X007263Y022120D01*
X007200Y022118D01*
X007137Y022120D01*
X007075Y022126D01*
X007013Y022136D01*
X006951Y022149D01*
X006891Y022167D01*
X006832Y022188D01*
X006774Y022213D01*
X006718Y022242D01*
X006664Y022274D01*
X006612Y022309D01*
X006563Y022347D01*
X006515Y022389D01*
X006471Y022433D01*
X006429Y022481D01*
X006391Y022530D01*
X006356Y022582D01*
X006324Y022636D01*
X006295Y022692D01*
X006270Y022750D01*
X006249Y022809D01*
X006231Y022869D01*
X006218Y022931D01*
X006208Y022993D01*
X006202Y023055D01*
X006200Y023118D01*
X003104Y023071D02*
X003106Y023134D01*
X003112Y023196D01*
X003122Y023258D01*
X003135Y023320D01*
X003153Y023380D01*
X003174Y023439D01*
X003199Y023497D01*
X003228Y023553D01*
X003260Y023607D01*
X003295Y023659D01*
X003333Y023708D01*
X003375Y023756D01*
X003419Y023800D01*
X003467Y023842D01*
X003516Y023880D01*
X003568Y023915D01*
X003622Y023947D01*
X003678Y023976D01*
X003736Y024001D01*
X003795Y024022D01*
X003855Y024040D01*
X003917Y024053D01*
X003979Y024063D01*
X004041Y024069D01*
X004104Y024071D01*
X004167Y024069D01*
X004229Y024063D01*
X004291Y024053D01*
X004353Y024040D01*
X004413Y024022D01*
X004472Y024001D01*
X004530Y023976D01*
X004586Y023947D01*
X004640Y023915D01*
X004692Y023880D01*
X004741Y023842D01*
X004789Y023800D01*
X004833Y023756D01*
X004875Y023708D01*
X004913Y023659D01*
X004948Y023607D01*
X004980Y023553D01*
X005009Y023497D01*
X005034Y023439D01*
X005055Y023380D01*
X005073Y023320D01*
X005086Y023258D01*
X005096Y023196D01*
X005102Y023134D01*
X005104Y023071D01*
X005102Y023008D01*
X005096Y022946D01*
X005086Y022884D01*
X005073Y022822D01*
X005055Y022762D01*
X005034Y022703D01*
X005009Y022645D01*
X004980Y022589D01*
X004948Y022535D01*
X004913Y022483D01*
X004875Y022434D01*
X004833Y022386D01*
X004789Y022342D01*
X004741Y022300D01*
X004692Y022262D01*
X004640Y022227D01*
X004586Y022195D01*
X004530Y022166D01*
X004472Y022141D01*
X004413Y022120D01*
X004353Y022102D01*
X004291Y022089D01*
X004229Y022079D01*
X004167Y022073D01*
X004104Y022071D01*
X004041Y022073D01*
X003979Y022079D01*
X003917Y022089D01*
X003855Y022102D01*
X003795Y022120D01*
X003736Y022141D01*
X003678Y022166D01*
X003622Y022195D01*
X003568Y022227D01*
X003516Y022262D01*
X003467Y022300D01*
X003419Y022342D01*
X003375Y022386D01*
X003333Y022434D01*
X003295Y022483D01*
X003260Y022535D01*
X003228Y022589D01*
X003199Y022645D01*
X003174Y022703D01*
X003153Y022762D01*
X003135Y022822D01*
X003122Y022884D01*
X003112Y022946D01*
X003106Y023008D01*
X003104Y023071D01*
X002266Y022930D02*
X002039Y022930D01*
X002039Y022760D01*
X002152Y022817D01*
X002209Y022817D01*
X002266Y022760D01*
X002266Y022647D01*
X002209Y022590D01*
X002096Y022590D01*
X002039Y022647D01*
X002266Y021930D02*
X002152Y021873D01*
X002039Y021760D01*
X002209Y021760D01*
X002266Y021703D01*
X002266Y021647D01*
X002209Y021590D01*
X002096Y021590D01*
X002039Y021647D01*
X002039Y021760D01*
X002039Y020930D02*
X002266Y020930D01*
X002266Y020873D01*
X002039Y020647D01*
X002039Y020590D01*
X002096Y019430D02*
X002209Y019430D01*
X002266Y019373D01*
X002266Y019317D01*
X002209Y019260D01*
X002096Y019260D01*
X002039Y019317D01*
X002039Y019373D01*
X002096Y019430D01*
X002096Y019260D02*
X002039Y019203D01*
X002039Y019147D01*
X002096Y019090D01*
X002209Y019090D01*
X002266Y019147D01*
X002266Y019203D01*
X002209Y019260D01*
X002209Y018430D02*
X002096Y018430D01*
X002039Y018373D01*
X002039Y018317D01*
X002096Y018260D01*
X002266Y018260D01*
X002266Y018147D02*
X002266Y018373D01*
X002209Y018430D01*
X002266Y018147D02*
X002209Y018090D01*
X002096Y018090D01*
X002039Y018147D01*
X002152Y017430D02*
X002152Y017090D01*
X002039Y017090D02*
X002266Y017090D01*
X002407Y017147D02*
X002634Y017373D01*
X002634Y017147D01*
X002577Y017090D01*
X002464Y017090D01*
X002407Y017147D01*
X002407Y017373D01*
X002464Y017430D01*
X002577Y017430D01*
X002634Y017373D01*
X002152Y017430D02*
X002039Y017317D01*
X002152Y016430D02*
X002152Y016090D01*
X002039Y016090D02*
X002266Y016090D01*
X002407Y016090D02*
X002634Y016090D01*
X002521Y016090D02*
X002521Y016430D01*
X002407Y016317D01*
X002152Y016430D02*
X002039Y016317D01*
X002152Y015430D02*
X002152Y015090D01*
X002039Y015090D02*
X002266Y015090D01*
X002407Y015090D02*
X002634Y015317D01*
X002634Y015373D01*
X002577Y015430D01*
X002464Y015430D01*
X002407Y015373D01*
X002152Y015430D02*
X002039Y015317D01*
X002407Y015090D02*
X002634Y015090D01*
X002577Y014430D02*
X002634Y014373D01*
X002634Y014317D01*
X002577Y014260D01*
X002634Y014203D01*
X002634Y014147D01*
X002577Y014090D01*
X002464Y014090D01*
X002407Y014147D01*
X002266Y014090D02*
X002039Y014090D01*
X002152Y014090D02*
X002152Y014430D01*
X002039Y014317D01*
X002407Y014373D02*
X002464Y014430D01*
X002577Y014430D01*
X002577Y014260D02*
X002521Y014260D01*
X002634Y013430D02*
X002634Y013090D01*
X002407Y013430D01*
X002407Y013090D01*
X002266Y013147D02*
X002266Y013260D01*
X002152Y013260D01*
X002039Y013373D02*
X002039Y013147D01*
X002096Y013090D01*
X002209Y013090D01*
X002266Y013147D01*
X002266Y013373D02*
X002209Y013430D01*
X002096Y013430D01*
X002039Y013373D01*
X002775Y013430D02*
X002775Y013090D01*
X002946Y013090D01*
X003002Y013147D01*
X003002Y013373D01*
X002946Y013430D01*
X002775Y013430D01*
X002775Y012430D02*
X002775Y012090D01*
X003002Y012090D01*
X003144Y012090D02*
X003144Y012430D01*
X003371Y012430D01*
X003257Y012260D02*
X003144Y012260D01*
X003002Y012430D02*
X002775Y012430D01*
X002634Y012373D02*
X002634Y012260D01*
X002577Y012203D01*
X002407Y012203D01*
X002407Y012090D02*
X002407Y012430D01*
X002577Y012430D01*
X002634Y012373D01*
X002775Y012260D02*
X002889Y012260D01*
X002634Y012090D02*
X002521Y012203D01*
X002266Y012260D02*
X002039Y012260D01*
X002039Y012317D02*
X002152Y012430D01*
X002266Y012317D01*
X002266Y012090D01*
X002039Y012090D02*
X002039Y012317D01*
X002209Y023590D02*
X002209Y023930D01*
X002039Y023760D01*
X002266Y023760D01*
X002209Y024590D02*
X002096Y024590D01*
X002039Y024647D01*
X002152Y024760D02*
X002209Y024760D01*
X002266Y024703D01*
X002266Y024647D01*
X002209Y024590D01*
X002209Y024760D02*
X002266Y024817D01*
X002266Y024873D01*
X002209Y024930D01*
X002096Y024930D01*
X002039Y024873D01*
X002039Y025590D02*
X002266Y025817D01*
X002266Y025873D01*
X002209Y025930D01*
X002096Y025930D01*
X002039Y025873D01*
X002039Y025590D02*
X002266Y025590D01*
X002152Y026590D02*
X002152Y026930D01*
X002039Y026930D02*
X002266Y026930D01*
X002407Y026930D02*
X002634Y026590D01*
X002407Y026590D02*
X002634Y026930D01*
X002634Y027590D02*
X002407Y027930D01*
X002266Y027873D02*
X002266Y027760D01*
X002209Y027703D01*
X002039Y027703D01*
X002039Y027590D02*
X002039Y027930D01*
X002209Y027930D01*
X002266Y027873D01*
X002152Y027703D02*
X002266Y027590D01*
X002407Y027590D02*
X002634Y027930D01*
X018336Y016760D02*
X018563Y016760D01*
X018450Y016873D02*
X018450Y016647D01*
X018705Y016647D02*
X018761Y016590D01*
X018875Y016590D01*
X018932Y016647D01*
X018932Y016703D01*
X018875Y016760D01*
X018818Y016760D01*
X018875Y016760D02*
X018932Y016817D01*
X018932Y016873D01*
X018875Y016930D01*
X018761Y016930D01*
X018705Y016873D01*
X019073Y016647D02*
X019130Y016647D01*
X019130Y016590D01*
X019073Y016590D01*
X019073Y016647D01*
X019257Y016647D02*
X019314Y016590D01*
X019427Y016590D01*
X019484Y016647D01*
X019484Y016703D01*
X019427Y016760D01*
X019371Y016760D01*
X019427Y016760D02*
X019484Y016817D01*
X019484Y016873D01*
X019427Y016930D01*
X019314Y016930D01*
X019257Y016873D01*
X019625Y016930D02*
X019625Y016703D01*
X019739Y016590D01*
X019852Y016703D01*
X019852Y016930D01*
X019739Y017590D02*
X019852Y017703D01*
X019852Y017930D01*
X019626Y017930D02*
X019626Y017703D01*
X019739Y017590D01*
X019484Y017647D02*
X019484Y017760D01*
X019427Y017817D01*
X019371Y017817D01*
X019257Y017760D01*
X019257Y017930D01*
X019484Y017930D01*
X019484Y017647D02*
X019427Y017590D01*
X019314Y017590D01*
X019257Y017647D01*
X019116Y017760D02*
X018889Y017760D01*
X019002Y017873D02*
X019002Y017647D01*
X018946Y018590D02*
X019059Y018590D01*
X019116Y018647D01*
X019116Y018760D01*
X019002Y018760D01*
X018889Y018873D02*
X018946Y018930D01*
X019059Y018930D01*
X019116Y018873D01*
X019257Y018930D02*
X019257Y018590D01*
X019484Y018590D02*
X019257Y018930D01*
X019484Y018930D02*
X019484Y018590D01*
X019626Y018590D02*
X019626Y018930D01*
X019796Y018930D01*
X019852Y018873D01*
X019852Y018647D01*
X019796Y018590D01*
X019626Y018590D01*
X018946Y018590D02*
X018889Y018647D01*
X018889Y018873D01*
X018946Y019590D02*
X018889Y019647D01*
X018889Y019873D01*
X018946Y019930D01*
X019059Y019930D01*
X019116Y019873D01*
X019116Y019760D02*
X019002Y019760D01*
X019116Y019760D02*
X019116Y019647D01*
X019059Y019590D01*
X018946Y019590D01*
X019257Y019590D02*
X019257Y019930D01*
X019484Y019590D01*
X019484Y019930D01*
X019626Y019930D02*
X019626Y019590D01*
X019796Y019590D01*
X019852Y019647D01*
X019852Y019873D01*
X019796Y019930D01*
X019626Y019930D01*
X019625Y020590D02*
X019625Y020930D01*
X019852Y020590D01*
X019852Y020930D01*
X019493Y020930D02*
X019380Y020930D01*
X019437Y020930D02*
X019437Y020590D01*
X019493Y020590D02*
X019380Y020590D01*
X019239Y020703D02*
X019239Y020930D01*
X019239Y020703D02*
X019125Y020590D01*
X019012Y020703D01*
X019012Y020930D01*
X019682Y022590D02*
X019626Y022647D01*
X019852Y022873D01*
X019852Y022647D01*
X019796Y022590D01*
X019682Y022590D01*
X019626Y022647D02*
X019626Y022873D01*
X019682Y022930D01*
X019796Y022930D01*
X019852Y022873D01*
X019852Y023590D02*
X019626Y023590D01*
X019739Y023590D02*
X019739Y023930D01*
X019626Y023817D01*
X019334Y023771D02*
X019107Y023771D01*
X018994Y023884D01*
X019107Y023997D01*
X019334Y023997D01*
X019334Y024139D02*
X019107Y024139D01*
X019107Y024309D01*
X019164Y024366D01*
X019334Y024366D01*
X019277Y024507D02*
X019220Y024564D01*
X019220Y024734D01*
X019164Y024734D02*
X019334Y024734D01*
X019334Y024564D01*
X019277Y024507D01*
X019107Y024564D02*
X019107Y024677D01*
X019164Y024734D01*
X019334Y024876D02*
X019334Y024989D01*
X019334Y024932D02*
X018994Y024932D01*
X018994Y024876D01*
X019164Y025121D02*
X019277Y025121D01*
X019334Y025178D01*
X019334Y025291D01*
X019277Y025348D01*
X019164Y025348D01*
X019107Y025291D01*
X019107Y025178D01*
X019164Y025121D01*
X019164Y025489D02*
X019277Y025489D01*
X019334Y025546D01*
X019334Y025716D01*
X019391Y025716D02*
X019107Y025716D01*
X019107Y025546D01*
X019164Y025489D01*
X019447Y025603D02*
X019447Y025659D01*
X019391Y025716D01*
X019626Y025647D02*
X019682Y025590D01*
X019796Y025590D01*
X019852Y025647D01*
X019852Y025703D01*
X019796Y025760D01*
X019739Y025760D01*
X019796Y025760D02*
X019852Y025817D01*
X019852Y025873D01*
X019796Y025930D01*
X019682Y025930D01*
X019626Y025873D01*
X019334Y026226D02*
X019334Y026339D01*
X019334Y026283D02*
X018994Y026283D01*
X018994Y026339D02*
X018994Y026226D01*
X019107Y026471D02*
X019107Y026642D01*
X019164Y026698D01*
X019334Y026698D01*
X019334Y026471D02*
X019107Y026471D01*
X019626Y026760D02*
X019852Y026760D01*
X019796Y026930D02*
X019626Y026760D01*
X019796Y026590D02*
X019796Y026930D01*
X019796Y027590D02*
X019682Y027590D01*
X019626Y027647D01*
X019626Y027760D02*
X019739Y027817D01*
X019796Y027817D01*
X019852Y027760D01*
X019852Y027647D01*
X019796Y027590D01*
X019626Y027760D02*
X019626Y027930D01*
X019852Y027930D01*
X019796Y024930D02*
X019682Y024930D01*
X019626Y024873D01*
X019796Y024930D02*
X019852Y024873D01*
X019852Y024817D01*
X019626Y024590D01*
X019852Y024590D01*
X019164Y023997D02*
X019164Y023771D01*
X019059Y015930D02*
X018889Y015930D01*
X018889Y015590D01*
X018889Y015703D02*
X019059Y015703D01*
X019116Y015760D01*
X019116Y015873D01*
X019059Y015930D01*
X019257Y015873D02*
X019257Y015817D01*
X019314Y015760D01*
X019427Y015760D01*
X019484Y015703D01*
X019484Y015647D01*
X019427Y015590D01*
X019314Y015590D01*
X019257Y015647D01*
X019116Y015590D02*
X019002Y015703D01*
X019257Y015873D02*
X019314Y015930D01*
X019427Y015930D01*
X019484Y015873D01*
X019626Y015930D02*
X019852Y015930D01*
X019739Y015930D02*
X019739Y015590D01*
D13*
X018098Y016764D02*
X018098Y017164D01*
X016564Y016464D02*
X016566Y016526D01*
X016572Y016589D01*
X016582Y016650D01*
X016596Y016711D01*
X016613Y016771D01*
X016634Y016830D01*
X016660Y016887D01*
X016688Y016942D01*
X016720Y016996D01*
X016756Y017047D01*
X016794Y017097D01*
X016836Y017143D01*
X016880Y017187D01*
X016928Y017228D01*
X016977Y017266D01*
X017029Y017300D01*
X017083Y017331D01*
X017139Y017359D01*
X017197Y017383D01*
X017256Y017404D01*
X017316Y017420D01*
X017377Y017433D01*
X017439Y017442D01*
X017501Y017447D01*
X017564Y017448D01*
X017626Y017445D01*
X017688Y017438D01*
X017750Y017427D01*
X017810Y017412D01*
X017870Y017394D01*
X017928Y017372D01*
X017985Y017346D01*
X018040Y017316D01*
X018093Y017283D01*
X018144Y017247D01*
X018192Y017208D01*
X018238Y017165D01*
X018281Y017120D01*
X018321Y017072D01*
X018358Y017022D01*
X018392Y016969D01*
X018423Y016915D01*
X018449Y016859D01*
X018473Y016801D01*
X018492Y016741D01*
X018508Y016681D01*
X018520Y016619D01*
X018528Y016558D01*
X018532Y016495D01*
X018532Y016433D01*
X018528Y016370D01*
X018520Y016309D01*
X018508Y016247D01*
X018492Y016187D01*
X018473Y016127D01*
X018449Y016069D01*
X018423Y016013D01*
X018392Y015959D01*
X018358Y015906D01*
X018321Y015856D01*
X018281Y015808D01*
X018238Y015763D01*
X018192Y015720D01*
X018144Y015681D01*
X018093Y015645D01*
X018040Y015612D01*
X017985Y015582D01*
X017928Y015556D01*
X017870Y015534D01*
X017810Y015516D01*
X017750Y015501D01*
X017688Y015490D01*
X017626Y015483D01*
X017564Y015480D01*
X017501Y015481D01*
X017439Y015486D01*
X017377Y015495D01*
X017316Y015508D01*
X017256Y015524D01*
X017197Y015545D01*
X017139Y015569D01*
X017083Y015597D01*
X017029Y015628D01*
X016977Y015662D01*
X016928Y015700D01*
X016880Y015741D01*
X016836Y015785D01*
X016794Y015831D01*
X016756Y015881D01*
X016720Y015932D01*
X016688Y015986D01*
X016660Y016041D01*
X016634Y016098D01*
X016613Y016157D01*
X016596Y016217D01*
X016582Y016278D01*
X016572Y016339D01*
X016566Y016402D01*
X016564Y016464D01*
X013306Y021104D02*
X011806Y021104D01*
X013329Y021739D02*
X015809Y021739D01*
X015809Y022684D01*
X013329Y022684D01*
X013329Y021739D01*
X010888Y024285D02*
X009388Y024285D01*
X009684Y025459D02*
X009684Y026404D01*
X012165Y026404D01*
X012165Y025459D01*
X009684Y025459D01*
X009649Y026858D02*
X009649Y027803D01*
X012129Y027803D01*
X012129Y026858D01*
X009649Y026858D01*
X009644Y028197D02*
X009644Y029142D01*
X012125Y029142D01*
X012125Y028197D01*
X009644Y028197D01*
X007950Y024118D02*
X006450Y024118D01*
X004854Y024071D02*
X003354Y024071D01*
X010509Y016774D02*
X012509Y016774D01*
X012509Y012774D01*
X012109Y012774D01*
X011909Y012774D01*
X012109Y012774D02*
X010509Y012774D01*
X010509Y016774D01*
D14*
X011726Y013274D02*
X011728Y013307D01*
X011734Y013340D01*
X011744Y013373D01*
X011757Y013403D01*
X011774Y013432D01*
X011795Y013459D01*
X011818Y013483D01*
X011844Y013504D01*
X011872Y013522D01*
X011903Y013536D01*
X011934Y013547D01*
X011967Y013554D01*
X012001Y013557D01*
X012034Y013556D01*
X012067Y013551D01*
X012100Y013542D01*
X012131Y013529D01*
X012160Y013513D01*
X012187Y013494D01*
X012212Y013471D01*
X012234Y013446D01*
X012253Y013418D01*
X012268Y013388D01*
X012280Y013357D01*
X012288Y013324D01*
X012292Y013291D01*
X012292Y013257D01*
X012288Y013224D01*
X012280Y013191D01*
X012268Y013160D01*
X012253Y013130D01*
X012234Y013102D01*
X012212Y013077D01*
X012187Y013054D01*
X012160Y013035D01*
X012131Y013019D01*
X012100Y013006D01*
X012067Y012997D01*
X012034Y012992D01*
X012001Y012991D01*
X011967Y012994D01*
X011934Y013001D01*
X011903Y013012D01*
X011872Y013026D01*
X011844Y013044D01*
X011818Y013065D01*
X011795Y013089D01*
X011774Y013116D01*
X011757Y013145D01*
X011744Y013175D01*
X011734Y013208D01*
X011728Y013241D01*
X011726Y013274D01*
D15*
X015983Y009506D02*
X015983Y009171D01*
X016427Y009125D01*
X016456Y009025D01*
X016496Y008928D01*
X016547Y008837D01*
X016265Y008490D01*
X016502Y008253D01*
X016848Y008535D01*
X016940Y008485D01*
X017037Y008445D01*
X017137Y008416D01*
X017182Y007971D01*
X017518Y007971D01*
X017564Y008416D01*
X017664Y008445D01*
X017761Y008485D01*
X017852Y008535D01*
X018199Y008253D01*
X018436Y008490D01*
X018154Y008837D01*
X018193Y008905D01*
X018226Y008976D01*
X017748Y009174D01*
X017715Y009109D01*
X017671Y009052D01*
X017619Y009002D01*
X017559Y008962D01*
X017493Y008932D01*
X017423Y008914D01*
X017350Y008908D01*
X017270Y008916D01*
X017192Y008938D01*
X017120Y008975D01*
X017056Y009024D01*
X017003Y009084D01*
X016961Y009154D01*
X016934Y009229D01*
X016921Y009309D01*
X016923Y009390D01*
X016940Y009469D01*
X016971Y009543D01*
X017016Y009610D01*
X017073Y009668D01*
X017139Y009714D01*
X017213Y009747D01*
X017292Y009765D01*
X017372Y009769D01*
X017452Y009757D01*
X017529Y009731D01*
X017599Y009690D01*
X017660Y009638D01*
X017710Y009575D01*
X017748Y009503D01*
X018226Y009701D01*
X018193Y009772D01*
X018154Y009841D01*
X018436Y010187D01*
X018199Y010424D01*
X017852Y010142D01*
X017761Y010192D01*
X017664Y010233D01*
X017564Y010262D01*
X017518Y010706D01*
X017182Y010706D01*
X017137Y010262D01*
X017037Y010233D01*
X016940Y010192D01*
X016848Y010142D01*
X016502Y010424D01*
X016265Y010187D01*
X016547Y009841D01*
X016496Y009749D01*
X016456Y009652D01*
X016427Y009552D01*
X015983Y009506D01*
X015983Y009496D02*
X016952Y009496D01*
X016933Y009439D02*
X015983Y009439D01*
X015983Y009381D02*
X016923Y009381D01*
X016921Y009324D02*
X015983Y009324D01*
X015983Y009266D02*
X016928Y009266D01*
X016942Y009208D02*
X015983Y009208D01*
X016178Y009151D02*
X016963Y009151D01*
X016998Y009093D02*
X016437Y009093D01*
X016453Y009036D02*
X017046Y009036D01*
X017116Y008978D02*
X016476Y008978D01*
X016501Y008920D02*
X017253Y008920D01*
X017447Y008920D02*
X018200Y008920D01*
X018221Y008978D02*
X017583Y008978D01*
X017655Y009036D02*
X018082Y009036D01*
X017943Y009093D02*
X017703Y009093D01*
X017736Y009151D02*
X017804Y009151D01*
X017870Y009554D02*
X017721Y009554D01*
X017681Y009612D02*
X018009Y009612D01*
X018149Y009669D02*
X017623Y009669D01*
X017535Y009727D02*
X018214Y009727D01*
X018186Y009784D02*
X016516Y009784D01*
X016487Y009727D02*
X017168Y009727D01*
X017075Y009669D02*
X016464Y009669D01*
X016445Y009612D02*
X017018Y009612D01*
X016979Y009554D02*
X016428Y009554D01*
X016546Y009842D02*
X018155Y009842D01*
X018202Y009900D02*
X016499Y009900D01*
X016452Y009957D02*
X018249Y009957D01*
X018296Y010015D02*
X016405Y010015D01*
X016358Y010072D02*
X018343Y010072D01*
X018390Y010130D02*
X016311Y010130D01*
X016265Y010188D02*
X016792Y010188D01*
X016722Y010245D02*
X016323Y010245D01*
X016380Y010303D02*
X016651Y010303D01*
X016581Y010360D02*
X016438Y010360D01*
X016496Y010418D02*
X016510Y010418D01*
X016931Y010188D02*
X017770Y010188D01*
X017908Y010188D02*
X018436Y010188D01*
X018378Y010245D02*
X017979Y010245D01*
X018050Y010303D02*
X018320Y010303D01*
X018263Y010360D02*
X018120Y010360D01*
X018191Y010418D02*
X018205Y010418D01*
X017620Y010245D02*
X017081Y010245D01*
X017141Y010303D02*
X017559Y010303D01*
X017554Y010360D02*
X017147Y010360D01*
X017153Y010418D02*
X017548Y010418D01*
X017542Y010476D02*
X017159Y010476D01*
X017165Y010533D02*
X017536Y010533D01*
X017530Y010591D02*
X017171Y010591D01*
X017177Y010648D02*
X017524Y010648D01*
X017518Y010706D02*
X017182Y010706D01*
X016532Y008863D02*
X018169Y008863D01*
X018179Y008805D02*
X016521Y008805D01*
X016474Y008748D02*
X018226Y008748D01*
X018273Y008690D02*
X016428Y008690D01*
X016381Y008632D02*
X018320Y008632D01*
X018367Y008575D02*
X016334Y008575D01*
X016287Y008517D02*
X016826Y008517D01*
X016881Y008517D02*
X017820Y008517D01*
X017874Y008517D02*
X018414Y008517D01*
X018406Y008460D02*
X017945Y008460D01*
X018016Y008402D02*
X018348Y008402D01*
X018290Y008344D02*
X018086Y008344D01*
X018157Y008287D02*
X018233Y008287D01*
X017700Y008460D02*
X017001Y008460D01*
X017139Y008402D02*
X017562Y008402D01*
X017556Y008344D02*
X017144Y008344D01*
X017150Y008287D02*
X017550Y008287D01*
X017545Y008229D02*
X017156Y008229D01*
X017162Y008172D02*
X017539Y008172D01*
X017533Y008114D02*
X017168Y008114D01*
X017174Y008056D02*
X017527Y008056D01*
X017521Y007999D02*
X017180Y007999D01*
X016756Y008460D02*
X016295Y008460D01*
X016353Y008402D02*
X016685Y008402D01*
X016614Y008344D02*
X016410Y008344D01*
X016468Y008287D02*
X016544Y008287D01*
D16*
X015925Y022872D02*
X015880Y022872D01*
X015880Y022917D01*
X015925Y022917D01*
X015925Y022872D01*
X015700Y022872D02*
X015925Y023142D01*
X015745Y023142D02*
X015745Y023097D01*
X015700Y023097D01*
X015700Y023142D01*
X015745Y023142D01*
X015585Y023142D02*
X015405Y023142D01*
X015405Y023007D01*
X015495Y023052D01*
X015540Y023052D01*
X015585Y023007D01*
X015585Y022917D01*
X015540Y022872D01*
X015450Y022872D01*
X015405Y022917D01*
X014996Y022872D02*
X014996Y023007D01*
X014951Y023052D01*
X014906Y023007D01*
X014906Y022872D01*
X014816Y022872D02*
X014816Y023052D01*
X014861Y023052D01*
X014906Y023007D01*
X014701Y023007D02*
X014701Y022872D01*
X014701Y023007D02*
X014656Y023052D01*
X014566Y023052D01*
X014521Y023007D01*
X014407Y023007D02*
X014362Y023052D01*
X014272Y023052D01*
X014227Y023007D01*
X014227Y022917D01*
X014272Y022872D01*
X014362Y022872D01*
X014407Y022917D01*
X014407Y023007D01*
X014521Y023142D02*
X014521Y022872D01*
X014112Y022917D02*
X014067Y022872D01*
X013977Y022872D01*
X013932Y022917D01*
X014112Y023097D01*
X014112Y022917D01*
X013932Y022917D02*
X013932Y023097D01*
X013977Y023142D01*
X014067Y023142D01*
X014112Y023097D01*
X013817Y023097D02*
X013772Y023142D01*
X013682Y023142D01*
X013637Y023097D01*
X013523Y023097D02*
X013478Y023142D01*
X013388Y023142D01*
X013343Y023097D01*
X013523Y023097D02*
X013523Y023052D01*
X013343Y022872D01*
X013523Y022872D01*
X013637Y022872D02*
X013817Y023052D01*
X013817Y023097D01*
X013817Y022872D02*
X013637Y022872D01*
D17*
X011776Y021136D02*
X011830Y021064D01*
X011829Y021065D02*
X011776Y021022D01*
X011725Y020977D01*
X011677Y020928D01*
X011632Y020877D01*
X011589Y020823D01*
X011550Y020767D01*
X011514Y020709D01*
X011481Y020649D01*
X011452Y020588D01*
X011427Y020524D01*
X011405Y020460D01*
X011386Y020394D01*
X011372Y020327D01*
X011361Y020260D01*
X011354Y020192D01*
X011351Y020124D01*
X011352Y020055D01*
X011357Y019987D01*
X011365Y019919D01*
X011378Y019852D01*
X011394Y019786D01*
X011414Y019721D01*
X011437Y019656D01*
X011464Y019594D01*
X011495Y019533D01*
X011529Y019474D01*
X011566Y019416D01*
X011607Y019361D01*
X011651Y019309D01*
X011697Y019259D01*
X011746Y019212D01*
X011798Y019167D01*
X011852Y019126D01*
X011909Y019087D01*
X011968Y019052D01*
X012028Y019021D01*
X012090Y018993D01*
X012154Y018968D01*
X012219Y018947D01*
X012285Y018930D01*
X012352Y018916D01*
X012420Y018907D01*
X012488Y018901D01*
X012556Y018899D01*
X012624Y018901D01*
X012692Y018907D01*
X012760Y018916D01*
X012827Y018930D01*
X012893Y018947D01*
X012958Y018968D01*
X013022Y018993D01*
X013084Y019021D01*
X013144Y019052D01*
X013203Y019087D01*
X013260Y019126D01*
X013314Y019167D01*
X013366Y019212D01*
X013415Y019259D01*
X013461Y019309D01*
X013505Y019361D01*
X013546Y019416D01*
X013583Y019474D01*
X013617Y019533D01*
X013648Y019594D01*
X013675Y019656D01*
X013698Y019721D01*
X013718Y019786D01*
X013734Y019852D01*
X013747Y019919D01*
X013755Y019987D01*
X013760Y020055D01*
X013761Y020124D01*
X013758Y020192D01*
X013751Y020260D01*
X013740Y020327D01*
X013726Y020394D01*
X013707Y020460D01*
X013685Y020524D01*
X013660Y020588D01*
X013631Y020649D01*
X013598Y020709D01*
X013562Y020767D01*
X013523Y020823D01*
X013480Y020877D01*
X013435Y020928D01*
X013387Y020977D01*
X013336Y021022D01*
X013283Y021065D01*
X013336Y021136D01*
X013337Y021137D01*
X013392Y021093D01*
X013445Y021045D01*
X013496Y020995D01*
X013543Y020942D01*
X013587Y020887D01*
X013629Y020829D01*
X013667Y020769D01*
X013702Y020708D01*
X013733Y020644D01*
X013761Y020579D01*
X013785Y020512D01*
X013806Y020444D01*
X013822Y020375D01*
X013835Y020305D01*
X013844Y020235D01*
X013850Y020164D01*
X013851Y020093D01*
X013848Y020022D01*
X013842Y019951D01*
X013832Y019881D01*
X013818Y019812D01*
X013800Y019743D01*
X013778Y019675D01*
X013753Y019609D01*
X013724Y019544D01*
X013691Y019481D01*
X013655Y019420D01*
X013616Y019361D01*
X013574Y019304D01*
X013529Y019249D01*
X013480Y019197D01*
X013429Y019148D01*
X013376Y019101D01*
X013319Y019058D01*
X013261Y019018D01*
X013200Y018981D01*
X013138Y018947D01*
X013074Y018917D01*
X013008Y018890D01*
X012941Y018867D01*
X012872Y018848D01*
X012803Y018833D01*
X012733Y018821D01*
X012662Y018813D01*
X012591Y018809D01*
X012521Y018809D01*
X012450Y018813D01*
X012379Y018821D01*
X012309Y018833D01*
X012240Y018848D01*
X012171Y018867D01*
X012104Y018890D01*
X012038Y018917D01*
X011974Y018947D01*
X011912Y018981D01*
X011851Y019018D01*
X011793Y019058D01*
X011736Y019101D01*
X011683Y019148D01*
X011632Y019197D01*
X011583Y019249D01*
X011538Y019304D01*
X011496Y019361D01*
X011457Y019420D01*
X011421Y019481D01*
X011388Y019544D01*
X011359Y019609D01*
X011334Y019675D01*
X011312Y019743D01*
X011294Y019812D01*
X011280Y019881D01*
X011270Y019951D01*
X011264Y020022D01*
X011261Y020093D01*
X011262Y020164D01*
X011268Y020235D01*
X011277Y020305D01*
X011290Y020375D01*
X011306Y020444D01*
X011327Y020512D01*
X011351Y020579D01*
X011379Y020644D01*
X011410Y020708D01*
X011445Y020769D01*
X011483Y020829D01*
X011525Y020887D01*
X011569Y020942D01*
X011616Y020995D01*
X011667Y021045D01*
X011720Y021093D01*
X011775Y021137D01*
X011780Y021130D01*
X011725Y021085D01*
X011672Y021038D01*
X011621Y020987D01*
X011574Y020934D01*
X011529Y020878D01*
X011488Y020820D01*
X011450Y020760D01*
X011415Y020698D01*
X011384Y020634D01*
X011357Y020568D01*
X011333Y020501D01*
X011313Y020432D01*
X011296Y020363D01*
X011284Y020293D01*
X011275Y020222D01*
X011271Y020151D01*
X011270Y020080D01*
X011274Y020009D01*
X011281Y019938D01*
X011292Y019867D01*
X011307Y019798D01*
X011326Y019729D01*
X011349Y019661D01*
X011375Y019595D01*
X011405Y019530D01*
X011439Y019468D01*
X011475Y019407D01*
X011516Y019348D01*
X011559Y019291D01*
X011606Y019237D01*
X011655Y019186D01*
X011708Y019138D01*
X011762Y019092D01*
X011820Y019050D01*
X011879Y019011D01*
X011941Y018975D01*
X012004Y018942D01*
X012069Y018914D01*
X012136Y018888D01*
X012204Y018867D01*
X012273Y018849D01*
X012343Y018836D01*
X012414Y018826D01*
X012485Y018820D01*
X012556Y018818D01*
X012627Y018820D01*
X012698Y018826D01*
X012769Y018836D01*
X012839Y018849D01*
X012908Y018867D01*
X012976Y018888D01*
X013043Y018914D01*
X013108Y018942D01*
X013171Y018975D01*
X013233Y019011D01*
X013292Y019050D01*
X013350Y019092D01*
X013404Y019138D01*
X013457Y019186D01*
X013506Y019237D01*
X013553Y019291D01*
X013596Y019348D01*
X013637Y019407D01*
X013673Y019468D01*
X013707Y019530D01*
X013737Y019595D01*
X013763Y019661D01*
X013786Y019729D01*
X013805Y019798D01*
X013820Y019867D01*
X013831Y019938D01*
X013838Y020009D01*
X013842Y020080D01*
X013841Y020151D01*
X013837Y020222D01*
X013828Y020293D01*
X013816Y020363D01*
X013799Y020432D01*
X013779Y020501D01*
X013755Y020568D01*
X013728Y020634D01*
X013697Y020698D01*
X013662Y020760D01*
X013624Y020820D01*
X013583Y020878D01*
X013538Y020934D01*
X013491Y020987D01*
X013440Y021038D01*
X013387Y021085D01*
X013332Y021130D01*
X013326Y021123D01*
X013381Y021078D01*
X013434Y021031D01*
X013484Y020981D01*
X013531Y020928D01*
X013575Y020873D01*
X013617Y020815D01*
X013654Y020756D01*
X013689Y020694D01*
X013720Y020630D01*
X013747Y020565D01*
X013771Y020498D01*
X013791Y020430D01*
X013807Y020361D01*
X013819Y020292D01*
X013828Y020221D01*
X013832Y020151D01*
X013833Y020080D01*
X013829Y020009D01*
X013822Y019939D01*
X013811Y019869D01*
X013796Y019800D01*
X013777Y019732D01*
X013755Y019664D01*
X013729Y019599D01*
X013699Y019534D01*
X013666Y019472D01*
X013629Y019412D01*
X013589Y019353D01*
X013546Y019297D01*
X013500Y019243D01*
X013450Y019193D01*
X013399Y019144D01*
X013344Y019099D01*
X013287Y019057D01*
X013228Y019018D01*
X013167Y018983D01*
X013104Y018950D01*
X013039Y018922D01*
X012973Y018897D01*
X012905Y018876D01*
X012837Y018858D01*
X012767Y018845D01*
X012697Y018835D01*
X012627Y018829D01*
X012556Y018827D01*
X012485Y018829D01*
X012415Y018835D01*
X012345Y018845D01*
X012275Y018858D01*
X012207Y018876D01*
X012139Y018897D01*
X012073Y018922D01*
X012008Y018950D01*
X011945Y018983D01*
X011884Y019018D01*
X011825Y019057D01*
X011768Y019099D01*
X011713Y019144D01*
X011662Y019193D01*
X011612Y019243D01*
X011566Y019297D01*
X011523Y019353D01*
X011483Y019412D01*
X011446Y019472D01*
X011413Y019534D01*
X011383Y019599D01*
X011357Y019664D01*
X011335Y019732D01*
X011316Y019800D01*
X011301Y019869D01*
X011290Y019939D01*
X011283Y020009D01*
X011279Y020080D01*
X011280Y020151D01*
X011284Y020221D01*
X011293Y020292D01*
X011305Y020361D01*
X011321Y020430D01*
X011341Y020498D01*
X011365Y020565D01*
X011392Y020630D01*
X011423Y020694D01*
X011458Y020756D01*
X011495Y020815D01*
X011537Y020873D01*
X011581Y020928D01*
X011628Y020981D01*
X011678Y021031D01*
X011731Y021078D01*
X011786Y021123D01*
X011791Y021115D01*
X011736Y021071D01*
X011683Y021023D01*
X011633Y020973D01*
X011585Y020920D01*
X011541Y020864D01*
X011500Y020806D01*
X011463Y020746D01*
X011428Y020684D01*
X011398Y020620D01*
X011371Y020554D01*
X011347Y020487D01*
X011328Y020419D01*
X011312Y020349D01*
X011300Y020279D01*
X011292Y020209D01*
X011288Y020138D01*
X011289Y020067D01*
X011293Y019996D01*
X011301Y019925D01*
X011313Y019855D01*
X011329Y019786D01*
X011348Y019718D01*
X011372Y019650D01*
X011399Y019585D01*
X011430Y019521D01*
X011464Y019459D01*
X011502Y019399D01*
X011544Y019341D01*
X011588Y019285D01*
X011635Y019232D01*
X011686Y019182D01*
X011739Y019135D01*
X011794Y019090D01*
X011852Y019049D01*
X011912Y019012D01*
X011975Y018977D01*
X012039Y018946D01*
X012104Y018919D01*
X012171Y018896D01*
X012240Y018876D01*
X012309Y018860D01*
X012379Y018848D01*
X012450Y018840D01*
X012520Y018836D01*
X012592Y018836D01*
X012662Y018840D01*
X012733Y018848D01*
X012803Y018860D01*
X012872Y018876D01*
X012941Y018896D01*
X013008Y018919D01*
X013073Y018946D01*
X013137Y018977D01*
X013200Y019012D01*
X013260Y019049D01*
X013318Y019090D01*
X013373Y019135D01*
X013426Y019182D01*
X013477Y019232D01*
X013524Y019285D01*
X013568Y019341D01*
X013610Y019399D01*
X013648Y019459D01*
X013682Y019521D01*
X013713Y019585D01*
X013740Y019650D01*
X013764Y019718D01*
X013783Y019786D01*
X013799Y019855D01*
X013811Y019925D01*
X013819Y019996D01*
X013823Y020067D01*
X013824Y020138D01*
X013820Y020209D01*
X013812Y020279D01*
X013800Y020349D01*
X013784Y020419D01*
X013765Y020487D01*
X013741Y020554D01*
X013714Y020620D01*
X013684Y020684D01*
X013649Y020746D01*
X013612Y020806D01*
X013571Y020864D01*
X013527Y020920D01*
X013479Y020973D01*
X013429Y021023D01*
X013376Y021071D01*
X013321Y021115D01*
X013315Y021108D01*
X013370Y021064D01*
X013423Y021017D01*
X013473Y020967D01*
X013520Y020914D01*
X013564Y020859D01*
X013604Y020801D01*
X013642Y020742D01*
X013676Y020680D01*
X013706Y020616D01*
X013733Y020551D01*
X013756Y020484D01*
X013776Y020416D01*
X013791Y020348D01*
X013803Y020278D01*
X013811Y020208D01*
X013815Y020137D01*
X013814Y020067D01*
X013810Y019996D01*
X013802Y019926D01*
X013790Y019857D01*
X013775Y019788D01*
X013755Y019720D01*
X013732Y019654D01*
X013705Y019589D01*
X013674Y019525D01*
X013640Y019463D01*
X013602Y019404D01*
X013561Y019346D01*
X013517Y019291D01*
X013470Y019238D01*
X013420Y019189D01*
X013368Y019142D01*
X013312Y019098D01*
X013255Y019057D01*
X013195Y019019D01*
X013133Y018985D01*
X013070Y018955D01*
X013005Y018928D01*
X012938Y018904D01*
X012870Y018885D01*
X012801Y018869D01*
X012732Y018857D01*
X012662Y018849D01*
X012591Y018845D01*
X012521Y018845D01*
X012450Y018849D01*
X012380Y018857D01*
X012311Y018869D01*
X012242Y018885D01*
X012174Y018904D01*
X012107Y018928D01*
X012042Y018955D01*
X011979Y018985D01*
X011917Y019019D01*
X011857Y019057D01*
X011800Y019098D01*
X011744Y019142D01*
X011692Y019189D01*
X011642Y019238D01*
X011595Y019291D01*
X011551Y019346D01*
X011510Y019404D01*
X011472Y019463D01*
X011438Y019525D01*
X011407Y019589D01*
X011380Y019654D01*
X011357Y019720D01*
X011337Y019788D01*
X011322Y019857D01*
X011310Y019926D01*
X011302Y019996D01*
X011298Y020067D01*
X011297Y020137D01*
X011301Y020208D01*
X011309Y020278D01*
X011321Y020348D01*
X011336Y020416D01*
X011356Y020484D01*
X011379Y020551D01*
X011406Y020616D01*
X011436Y020680D01*
X011470Y020742D01*
X011508Y020801D01*
X011548Y020859D01*
X011592Y020914D01*
X011639Y020967D01*
X011689Y021017D01*
X011742Y021064D01*
X011797Y021108D01*
X011802Y021101D01*
X011747Y021057D01*
X011695Y021010D01*
X011646Y020961D01*
X011599Y020908D01*
X011556Y020854D01*
X011515Y020796D01*
X011478Y020737D01*
X011444Y020676D01*
X011414Y020612D01*
X011387Y020548D01*
X011364Y020481D01*
X011345Y020414D01*
X011330Y020346D01*
X011318Y020277D01*
X011310Y020207D01*
X011306Y020137D01*
X011307Y020067D01*
X011311Y019997D01*
X011319Y019928D01*
X011330Y019859D01*
X011346Y019790D01*
X011365Y019723D01*
X011389Y019657D01*
X011416Y019592D01*
X011446Y019529D01*
X011480Y019468D01*
X011517Y019409D01*
X011558Y019351D01*
X011602Y019297D01*
X011648Y019245D01*
X011698Y019195D01*
X011750Y019148D01*
X011805Y019105D01*
X011862Y019064D01*
X011921Y019027D01*
X011983Y018993D01*
X012046Y018963D01*
X012111Y018936D01*
X012177Y018913D01*
X012244Y018894D01*
X012312Y018878D01*
X012381Y018866D01*
X012451Y018858D01*
X012521Y018854D01*
X012591Y018854D01*
X012661Y018858D01*
X012731Y018866D01*
X012800Y018878D01*
X012868Y018894D01*
X012935Y018913D01*
X013001Y018936D01*
X013066Y018963D01*
X013129Y018993D01*
X013191Y019027D01*
X013250Y019064D01*
X013307Y019105D01*
X013362Y019148D01*
X013414Y019195D01*
X013464Y019245D01*
X013510Y019297D01*
X013554Y019351D01*
X013595Y019409D01*
X013632Y019468D01*
X013666Y019529D01*
X013696Y019592D01*
X013723Y019657D01*
X013747Y019723D01*
X013766Y019790D01*
X013782Y019859D01*
X013793Y019928D01*
X013801Y019997D01*
X013805Y020067D01*
X013806Y020137D01*
X013802Y020207D01*
X013794Y020277D01*
X013782Y020346D01*
X013767Y020414D01*
X013748Y020481D01*
X013725Y020548D01*
X013698Y020612D01*
X013668Y020676D01*
X013634Y020737D01*
X013597Y020796D01*
X013556Y020854D01*
X013513Y020908D01*
X013466Y020961D01*
X013417Y021010D01*
X013365Y021057D01*
X013310Y021101D01*
X013305Y021094D01*
X013359Y021050D01*
X013411Y021004D01*
X013460Y020955D01*
X013506Y020903D01*
X013549Y020848D01*
X013589Y020791D01*
X013626Y020732D01*
X013660Y020671D01*
X013690Y020609D01*
X013716Y020544D01*
X013739Y020479D01*
X013758Y020412D01*
X013774Y020344D01*
X013785Y020275D01*
X013793Y020206D01*
X013797Y020137D01*
X013796Y020067D01*
X013792Y019998D01*
X013785Y019929D01*
X013773Y019860D01*
X013757Y019793D01*
X013738Y019726D01*
X013715Y019660D01*
X013688Y019596D01*
X013658Y019533D01*
X013624Y019472D01*
X013587Y019414D01*
X013547Y019357D01*
X013504Y019303D01*
X013457Y019251D01*
X013408Y019202D01*
X013356Y019155D01*
X013302Y019112D01*
X013245Y019072D01*
X013186Y019035D01*
X013125Y019001D01*
X013062Y018971D01*
X012998Y018944D01*
X012933Y018921D01*
X012866Y018902D01*
X012798Y018887D01*
X012729Y018875D01*
X012660Y018867D01*
X012591Y018863D01*
X012521Y018863D01*
X012452Y018867D01*
X012383Y018875D01*
X012314Y018887D01*
X012246Y018902D01*
X012179Y018921D01*
X012114Y018944D01*
X012050Y018971D01*
X011987Y019001D01*
X011926Y019035D01*
X011867Y019072D01*
X011810Y019112D01*
X011756Y019155D01*
X011704Y019202D01*
X011655Y019251D01*
X011608Y019303D01*
X011565Y019357D01*
X011525Y019414D01*
X011488Y019472D01*
X011454Y019533D01*
X011424Y019596D01*
X011397Y019660D01*
X011374Y019726D01*
X011355Y019793D01*
X011339Y019860D01*
X011327Y019929D01*
X011320Y019998D01*
X011316Y020067D01*
X011315Y020137D01*
X011319Y020206D01*
X011327Y020275D01*
X011338Y020344D01*
X011354Y020412D01*
X011373Y020479D01*
X011396Y020544D01*
X011422Y020609D01*
X011452Y020671D01*
X011486Y020732D01*
X011523Y020791D01*
X011563Y020848D01*
X011606Y020903D01*
X011652Y020955D01*
X011701Y021004D01*
X011753Y021050D01*
X011807Y021094D01*
X011813Y021087D01*
X011759Y021043D01*
X011708Y020997D01*
X011659Y020948D01*
X011613Y020897D01*
X011570Y020843D01*
X011530Y020786D01*
X011494Y020728D01*
X011460Y020667D01*
X011430Y020605D01*
X011404Y020541D01*
X011382Y020476D01*
X011363Y020410D01*
X011347Y020342D01*
X011336Y020274D01*
X011328Y020206D01*
X011324Y020137D01*
X011325Y020068D01*
X011329Y019999D01*
X011336Y019930D01*
X011348Y019862D01*
X011363Y019795D01*
X011383Y019728D01*
X011406Y019663D01*
X011432Y019600D01*
X011462Y019537D01*
X011495Y019477D01*
X011532Y019419D01*
X011572Y019362D01*
X011615Y019308D01*
X011661Y019257D01*
X011710Y019208D01*
X011762Y019162D01*
X011816Y019119D01*
X011872Y019079D01*
X011931Y019043D01*
X011991Y019009D01*
X012053Y018979D01*
X012117Y018953D01*
X012182Y018930D01*
X012249Y018911D01*
X012316Y018896D01*
X012384Y018884D01*
X012453Y018876D01*
X012521Y018872D01*
X012591Y018872D01*
X012659Y018876D01*
X012728Y018884D01*
X012796Y018896D01*
X012863Y018911D01*
X012930Y018930D01*
X012995Y018953D01*
X013059Y018979D01*
X013121Y019009D01*
X013181Y019043D01*
X013240Y019079D01*
X013296Y019119D01*
X013350Y019162D01*
X013402Y019208D01*
X013451Y019257D01*
X013497Y019308D01*
X013540Y019362D01*
X013580Y019419D01*
X013617Y019477D01*
X013650Y019537D01*
X013680Y019600D01*
X013706Y019663D01*
X013729Y019728D01*
X013749Y019795D01*
X013764Y019862D01*
X013776Y019930D01*
X013783Y019999D01*
X013787Y020068D01*
X013788Y020137D01*
X013784Y020206D01*
X013776Y020274D01*
X013765Y020342D01*
X013749Y020410D01*
X013730Y020476D01*
X013708Y020541D01*
X013682Y020605D01*
X013652Y020667D01*
X013618Y020728D01*
X013582Y020786D01*
X013542Y020843D01*
X013499Y020897D01*
X013453Y020948D01*
X013404Y020997D01*
X013353Y021043D01*
X013299Y021087D01*
X013294Y021079D01*
X013348Y021036D01*
X013399Y020990D01*
X013448Y020940D01*
X013494Y020889D01*
X013537Y020834D01*
X013577Y020777D01*
X013613Y020719D01*
X013647Y020658D01*
X013676Y020595D01*
X013702Y020531D01*
X013724Y020465D01*
X013743Y020398D01*
X013758Y020331D01*
X013769Y020262D01*
X013776Y020193D01*
X013779Y020124D01*
X013778Y020055D01*
X013773Y019985D01*
X013765Y019917D01*
X013752Y019849D01*
X013736Y019781D01*
X013715Y019715D01*
X013692Y019650D01*
X013664Y019586D01*
X013633Y019524D01*
X013598Y019464D01*
X013560Y019406D01*
X013519Y019350D01*
X013475Y019297D01*
X013428Y019246D01*
X013378Y019198D01*
X013325Y019153D01*
X013270Y019111D01*
X013213Y019072D01*
X013153Y019037D01*
X013092Y019005D01*
X013029Y018976D01*
X012964Y018951D01*
X012898Y018930D01*
X012831Y018912D01*
X012763Y018899D01*
X012694Y018889D01*
X012625Y018883D01*
X012556Y018881D01*
X012487Y018883D01*
X012418Y018889D01*
X012349Y018899D01*
X012281Y018912D01*
X012214Y018930D01*
X012148Y018951D01*
X012083Y018976D01*
X012020Y019005D01*
X011959Y019037D01*
X011899Y019072D01*
X011842Y019111D01*
X011787Y019153D01*
X011734Y019198D01*
X011684Y019246D01*
X011637Y019297D01*
X011593Y019350D01*
X011552Y019406D01*
X011514Y019464D01*
X011479Y019524D01*
X011448Y019586D01*
X011420Y019650D01*
X011397Y019715D01*
X011376Y019781D01*
X011360Y019849D01*
X011347Y019917D01*
X011339Y019985D01*
X011334Y020055D01*
X011333Y020124D01*
X011336Y020193D01*
X011343Y020262D01*
X011354Y020331D01*
X011369Y020398D01*
X011388Y020465D01*
X011410Y020531D01*
X011436Y020595D01*
X011465Y020658D01*
X011499Y020719D01*
X011535Y020777D01*
X011575Y020834D01*
X011618Y020889D01*
X011664Y020940D01*
X011713Y020990D01*
X011764Y021036D01*
X011818Y021079D01*
X011824Y021072D01*
X011770Y021029D01*
X011719Y020983D01*
X011670Y020934D01*
X011625Y020883D01*
X011582Y020829D01*
X011543Y020772D01*
X011506Y020714D01*
X011473Y020654D01*
X011444Y020591D01*
X011418Y020528D01*
X011396Y020462D01*
X011378Y020396D01*
X011363Y020329D01*
X011352Y020261D01*
X011345Y020192D01*
X011342Y020124D01*
X011343Y020055D01*
X011348Y019986D01*
X011356Y019918D01*
X011369Y019850D01*
X011385Y019784D01*
X011405Y019718D01*
X011429Y019653D01*
X011456Y019590D01*
X011487Y019529D01*
X011521Y019469D01*
X011559Y019411D01*
X011600Y019356D01*
X011644Y019303D01*
X011691Y019253D01*
X011740Y019205D01*
X011792Y019160D01*
X011847Y019118D01*
X011904Y019080D01*
X011963Y019045D01*
X012024Y019013D01*
X012087Y018984D01*
X012151Y018960D01*
X012217Y018938D01*
X012283Y018921D01*
X012351Y018908D01*
X012419Y018898D01*
X012487Y018892D01*
X012556Y018890D01*
X012625Y018892D01*
X012693Y018898D01*
X012761Y018908D01*
X012829Y018921D01*
X012895Y018938D01*
X012961Y018960D01*
X013025Y018984D01*
X013088Y019013D01*
X013149Y019045D01*
X013208Y019080D01*
X013265Y019118D01*
X013320Y019160D01*
X013372Y019205D01*
X013421Y019253D01*
X013468Y019303D01*
X013512Y019356D01*
X013553Y019411D01*
X013591Y019469D01*
X013625Y019529D01*
X013656Y019590D01*
X013683Y019653D01*
X013707Y019718D01*
X013727Y019784D01*
X013743Y019850D01*
X013756Y019918D01*
X013764Y019986D01*
X013769Y020055D01*
X013770Y020124D01*
X013767Y020192D01*
X013760Y020261D01*
X013749Y020329D01*
X013734Y020396D01*
X013716Y020462D01*
X013694Y020528D01*
X013668Y020591D01*
X013639Y020654D01*
X013606Y020714D01*
X013569Y020772D01*
X013530Y020829D01*
X013487Y020883D01*
X013442Y020934D01*
X013393Y020983D01*
X013342Y021029D01*
X013288Y021072D01*
X009358Y024317D02*
X009412Y024245D01*
X009411Y024246D02*
X009358Y024203D01*
X009307Y024158D01*
X009259Y024109D01*
X009214Y024058D01*
X009171Y024004D01*
X009132Y023948D01*
X009096Y023890D01*
X009063Y023830D01*
X009034Y023769D01*
X009009Y023705D01*
X008987Y023641D01*
X008968Y023575D01*
X008954Y023508D01*
X008943Y023441D01*
X008936Y023373D01*
X008933Y023305D01*
X008934Y023236D01*
X008939Y023168D01*
X008947Y023100D01*
X008960Y023033D01*
X008976Y022967D01*
X008996Y022902D01*
X009019Y022837D01*
X009046Y022775D01*
X009077Y022714D01*
X009111Y022655D01*
X009148Y022597D01*
X009189Y022542D01*
X009233Y022490D01*
X009279Y022440D01*
X009328Y022393D01*
X009380Y022348D01*
X009434Y022307D01*
X009491Y022268D01*
X009550Y022233D01*
X009610Y022202D01*
X009672Y022174D01*
X009736Y022149D01*
X009801Y022128D01*
X009867Y022111D01*
X009934Y022097D01*
X010002Y022088D01*
X010070Y022082D01*
X010138Y022080D01*
X010206Y022082D01*
X010274Y022088D01*
X010342Y022097D01*
X010409Y022111D01*
X010475Y022128D01*
X010540Y022149D01*
X010604Y022174D01*
X010666Y022202D01*
X010726Y022233D01*
X010785Y022268D01*
X010842Y022307D01*
X010896Y022348D01*
X010948Y022393D01*
X010997Y022440D01*
X011043Y022490D01*
X011087Y022542D01*
X011128Y022597D01*
X011165Y022655D01*
X011199Y022714D01*
X011230Y022775D01*
X011257Y022837D01*
X011280Y022902D01*
X011300Y022967D01*
X011316Y023033D01*
X011329Y023100D01*
X011337Y023168D01*
X011342Y023236D01*
X011343Y023305D01*
X011340Y023373D01*
X011333Y023441D01*
X011322Y023508D01*
X011308Y023575D01*
X011289Y023641D01*
X011267Y023705D01*
X011242Y023769D01*
X011213Y023830D01*
X011180Y023890D01*
X011144Y023948D01*
X011105Y024004D01*
X011062Y024058D01*
X011017Y024109D01*
X010969Y024158D01*
X010918Y024203D01*
X010865Y024246D01*
X010918Y024317D01*
X010919Y024318D01*
X010974Y024274D01*
X011027Y024226D01*
X011078Y024176D01*
X011125Y024123D01*
X011169Y024068D01*
X011211Y024010D01*
X011249Y023950D01*
X011284Y023889D01*
X011315Y023825D01*
X011343Y023760D01*
X011367Y023693D01*
X011388Y023625D01*
X011404Y023556D01*
X011417Y023486D01*
X011426Y023416D01*
X011432Y023345D01*
X011433Y023274D01*
X011430Y023203D01*
X011424Y023132D01*
X011414Y023062D01*
X011400Y022993D01*
X011382Y022924D01*
X011360Y022856D01*
X011335Y022790D01*
X011306Y022725D01*
X011273Y022662D01*
X011237Y022601D01*
X011198Y022542D01*
X011156Y022485D01*
X011111Y022430D01*
X011062Y022378D01*
X011011Y022329D01*
X010958Y022282D01*
X010901Y022239D01*
X010843Y022199D01*
X010782Y022162D01*
X010720Y022128D01*
X010656Y022098D01*
X010590Y022071D01*
X010523Y022048D01*
X010454Y022029D01*
X010385Y022014D01*
X010315Y022002D01*
X010244Y021994D01*
X010173Y021990D01*
X010103Y021990D01*
X010032Y021994D01*
X009961Y022002D01*
X009891Y022014D01*
X009822Y022029D01*
X009753Y022048D01*
X009686Y022071D01*
X009620Y022098D01*
X009556Y022128D01*
X009494Y022162D01*
X009433Y022199D01*
X009375Y022239D01*
X009318Y022282D01*
X009265Y022329D01*
X009214Y022378D01*
X009165Y022430D01*
X009120Y022485D01*
X009078Y022542D01*
X009039Y022601D01*
X009003Y022662D01*
X008970Y022725D01*
X008941Y022790D01*
X008916Y022856D01*
X008894Y022924D01*
X008876Y022993D01*
X008862Y023062D01*
X008852Y023132D01*
X008846Y023203D01*
X008843Y023274D01*
X008844Y023345D01*
X008850Y023416D01*
X008859Y023486D01*
X008872Y023556D01*
X008888Y023625D01*
X008909Y023693D01*
X008933Y023760D01*
X008961Y023825D01*
X008992Y023889D01*
X009027Y023950D01*
X009065Y024010D01*
X009107Y024068D01*
X009151Y024123D01*
X009198Y024176D01*
X009249Y024226D01*
X009302Y024274D01*
X009357Y024318D01*
X009362Y024311D01*
X009307Y024266D01*
X009254Y024219D01*
X009203Y024168D01*
X009156Y024115D01*
X009111Y024059D01*
X009070Y024001D01*
X009032Y023941D01*
X008997Y023879D01*
X008966Y023815D01*
X008939Y023749D01*
X008915Y023682D01*
X008895Y023613D01*
X008878Y023544D01*
X008866Y023474D01*
X008857Y023403D01*
X008853Y023332D01*
X008852Y023261D01*
X008856Y023190D01*
X008863Y023119D01*
X008874Y023048D01*
X008889Y022979D01*
X008908Y022910D01*
X008931Y022842D01*
X008957Y022776D01*
X008987Y022711D01*
X009021Y022649D01*
X009057Y022588D01*
X009098Y022529D01*
X009141Y022472D01*
X009188Y022418D01*
X009237Y022367D01*
X009290Y022319D01*
X009344Y022273D01*
X009402Y022231D01*
X009461Y022192D01*
X009523Y022156D01*
X009586Y022123D01*
X009651Y022095D01*
X009718Y022069D01*
X009786Y022048D01*
X009855Y022030D01*
X009925Y022017D01*
X009996Y022007D01*
X010067Y022001D01*
X010138Y021999D01*
X010209Y022001D01*
X010280Y022007D01*
X010351Y022017D01*
X010421Y022030D01*
X010490Y022048D01*
X010558Y022069D01*
X010625Y022095D01*
X010690Y022123D01*
X010753Y022156D01*
X010815Y022192D01*
X010874Y022231D01*
X010932Y022273D01*
X010986Y022319D01*
X011039Y022367D01*
X011088Y022418D01*
X011135Y022472D01*
X011178Y022529D01*
X011219Y022588D01*
X011255Y022649D01*
X011289Y022711D01*
X011319Y022776D01*
X011345Y022842D01*
X011368Y022910D01*
X011387Y022979D01*
X011402Y023048D01*
X011413Y023119D01*
X011420Y023190D01*
X011424Y023261D01*
X011423Y023332D01*
X011419Y023403D01*
X011410Y023474D01*
X011398Y023544D01*
X011381Y023613D01*
X011361Y023682D01*
X011337Y023749D01*
X011310Y023815D01*
X011279Y023879D01*
X011244Y023941D01*
X011206Y024001D01*
X011165Y024059D01*
X011120Y024115D01*
X011073Y024168D01*
X011022Y024219D01*
X010969Y024266D01*
X010914Y024311D01*
X010908Y024304D01*
X010963Y024259D01*
X011016Y024212D01*
X011066Y024162D01*
X011113Y024109D01*
X011157Y024054D01*
X011199Y023996D01*
X011236Y023937D01*
X011271Y023875D01*
X011302Y023811D01*
X011329Y023746D01*
X011353Y023679D01*
X011373Y023611D01*
X011389Y023542D01*
X011401Y023473D01*
X011410Y023402D01*
X011414Y023332D01*
X011415Y023261D01*
X011411Y023190D01*
X011404Y023120D01*
X011393Y023050D01*
X011378Y022981D01*
X011359Y022913D01*
X011337Y022845D01*
X011311Y022780D01*
X011281Y022715D01*
X011248Y022653D01*
X011211Y022593D01*
X011171Y022534D01*
X011128Y022478D01*
X011082Y022424D01*
X011032Y022374D01*
X010981Y022325D01*
X010926Y022280D01*
X010869Y022238D01*
X010810Y022199D01*
X010749Y022164D01*
X010686Y022131D01*
X010621Y022103D01*
X010555Y022078D01*
X010487Y022057D01*
X010419Y022039D01*
X010349Y022026D01*
X010279Y022016D01*
X010209Y022010D01*
X010138Y022008D01*
X010067Y022010D01*
X009997Y022016D01*
X009927Y022026D01*
X009857Y022039D01*
X009789Y022057D01*
X009721Y022078D01*
X009655Y022103D01*
X009590Y022131D01*
X009527Y022164D01*
X009466Y022199D01*
X009407Y022238D01*
X009350Y022280D01*
X009295Y022325D01*
X009244Y022374D01*
X009194Y022424D01*
X009148Y022478D01*
X009105Y022534D01*
X009065Y022593D01*
X009028Y022653D01*
X008995Y022715D01*
X008965Y022780D01*
X008939Y022845D01*
X008917Y022913D01*
X008898Y022981D01*
X008883Y023050D01*
X008872Y023120D01*
X008865Y023190D01*
X008861Y023261D01*
X008862Y023332D01*
X008866Y023402D01*
X008875Y023473D01*
X008887Y023542D01*
X008903Y023611D01*
X008923Y023679D01*
X008947Y023746D01*
X008974Y023811D01*
X009005Y023875D01*
X009040Y023937D01*
X009077Y023996D01*
X009119Y024054D01*
X009163Y024109D01*
X009210Y024162D01*
X009260Y024212D01*
X009313Y024259D01*
X009368Y024304D01*
X009373Y024296D01*
X009318Y024252D01*
X009265Y024204D01*
X009215Y024154D01*
X009167Y024101D01*
X009123Y024045D01*
X009082Y023987D01*
X009045Y023927D01*
X009010Y023865D01*
X008980Y023801D01*
X008953Y023735D01*
X008929Y023668D01*
X008910Y023600D01*
X008894Y023530D01*
X008882Y023460D01*
X008874Y023390D01*
X008870Y023319D01*
X008871Y023248D01*
X008875Y023177D01*
X008883Y023106D01*
X008895Y023036D01*
X008911Y022967D01*
X008930Y022899D01*
X008954Y022831D01*
X008981Y022766D01*
X009012Y022702D01*
X009046Y022640D01*
X009084Y022580D01*
X009126Y022522D01*
X009170Y022466D01*
X009217Y022413D01*
X009268Y022363D01*
X009321Y022316D01*
X009376Y022271D01*
X009434Y022230D01*
X009494Y022193D01*
X009557Y022158D01*
X009621Y022127D01*
X009686Y022100D01*
X009753Y022077D01*
X009822Y022057D01*
X009891Y022041D01*
X009961Y022029D01*
X010032Y022021D01*
X010102Y022017D01*
X010174Y022017D01*
X010244Y022021D01*
X010315Y022029D01*
X010385Y022041D01*
X010454Y022057D01*
X010523Y022077D01*
X010590Y022100D01*
X010655Y022127D01*
X010719Y022158D01*
X010782Y022193D01*
X010842Y022230D01*
X010900Y022271D01*
X010955Y022316D01*
X011008Y022363D01*
X011059Y022413D01*
X011106Y022466D01*
X011150Y022522D01*
X011192Y022580D01*
X011230Y022640D01*
X011264Y022702D01*
X011295Y022766D01*
X011322Y022831D01*
X011346Y022899D01*
X011365Y022967D01*
X011381Y023036D01*
X011393Y023106D01*
X011401Y023177D01*
X011405Y023248D01*
X011406Y023319D01*
X011402Y023390D01*
X011394Y023460D01*
X011382Y023530D01*
X011366Y023600D01*
X011347Y023668D01*
X011323Y023735D01*
X011296Y023801D01*
X011266Y023865D01*
X011231Y023927D01*
X011194Y023987D01*
X011153Y024045D01*
X011109Y024101D01*
X011061Y024154D01*
X011011Y024204D01*
X010958Y024252D01*
X010903Y024296D01*
X010897Y024289D01*
X010952Y024245D01*
X011005Y024198D01*
X011055Y024148D01*
X011102Y024095D01*
X011146Y024040D01*
X011186Y023982D01*
X011224Y023923D01*
X011258Y023861D01*
X011288Y023797D01*
X011315Y023732D01*
X011338Y023665D01*
X011358Y023597D01*
X011373Y023529D01*
X011385Y023459D01*
X011393Y023389D01*
X011397Y023318D01*
X011396Y023248D01*
X011392Y023177D01*
X011384Y023107D01*
X011372Y023038D01*
X011357Y022969D01*
X011337Y022901D01*
X011314Y022835D01*
X011287Y022770D01*
X011256Y022706D01*
X011222Y022644D01*
X011184Y022585D01*
X011143Y022527D01*
X011099Y022472D01*
X011052Y022419D01*
X011002Y022370D01*
X010950Y022323D01*
X010894Y022279D01*
X010837Y022238D01*
X010777Y022200D01*
X010715Y022166D01*
X010652Y022136D01*
X010587Y022109D01*
X010520Y022085D01*
X010452Y022066D01*
X010383Y022050D01*
X010314Y022038D01*
X010244Y022030D01*
X010173Y022026D01*
X010103Y022026D01*
X010032Y022030D01*
X009962Y022038D01*
X009893Y022050D01*
X009824Y022066D01*
X009756Y022085D01*
X009689Y022109D01*
X009624Y022136D01*
X009561Y022166D01*
X009499Y022200D01*
X009439Y022238D01*
X009382Y022279D01*
X009326Y022323D01*
X009274Y022370D01*
X009224Y022419D01*
X009177Y022472D01*
X009133Y022527D01*
X009092Y022585D01*
X009054Y022644D01*
X009020Y022706D01*
X008989Y022770D01*
X008962Y022835D01*
X008939Y022901D01*
X008919Y022969D01*
X008904Y023038D01*
X008892Y023107D01*
X008884Y023177D01*
X008880Y023248D01*
X008879Y023318D01*
X008883Y023389D01*
X008891Y023459D01*
X008903Y023529D01*
X008918Y023597D01*
X008938Y023665D01*
X008961Y023732D01*
X008988Y023797D01*
X009018Y023861D01*
X009052Y023923D01*
X009090Y023982D01*
X009130Y024040D01*
X009174Y024095D01*
X009221Y024148D01*
X009271Y024198D01*
X009324Y024245D01*
X009379Y024289D01*
X009384Y024282D01*
X009329Y024238D01*
X009277Y024191D01*
X009228Y024142D01*
X009181Y024089D01*
X009138Y024035D01*
X009097Y023977D01*
X009060Y023918D01*
X009026Y023857D01*
X008996Y023793D01*
X008969Y023729D01*
X008946Y023662D01*
X008927Y023595D01*
X008912Y023527D01*
X008900Y023458D01*
X008892Y023388D01*
X008888Y023318D01*
X008889Y023248D01*
X008893Y023178D01*
X008901Y023109D01*
X008912Y023040D01*
X008928Y022971D01*
X008947Y022904D01*
X008971Y022838D01*
X008998Y022773D01*
X009028Y022710D01*
X009062Y022649D01*
X009099Y022590D01*
X009140Y022532D01*
X009184Y022478D01*
X009230Y022426D01*
X009280Y022376D01*
X009332Y022329D01*
X009387Y022286D01*
X009444Y022245D01*
X009503Y022208D01*
X009565Y022174D01*
X009628Y022144D01*
X009693Y022117D01*
X009759Y022094D01*
X009826Y022075D01*
X009894Y022059D01*
X009963Y022047D01*
X010033Y022039D01*
X010103Y022035D01*
X010173Y022035D01*
X010243Y022039D01*
X010313Y022047D01*
X010382Y022059D01*
X010450Y022075D01*
X010517Y022094D01*
X010583Y022117D01*
X010648Y022144D01*
X010711Y022174D01*
X010773Y022208D01*
X010832Y022245D01*
X010889Y022286D01*
X010944Y022329D01*
X010996Y022376D01*
X011046Y022426D01*
X011092Y022478D01*
X011136Y022532D01*
X011177Y022590D01*
X011214Y022649D01*
X011248Y022710D01*
X011278Y022773D01*
X011305Y022838D01*
X011329Y022904D01*
X011348Y022971D01*
X011364Y023040D01*
X011375Y023109D01*
X011383Y023178D01*
X011387Y023248D01*
X011388Y023318D01*
X011384Y023388D01*
X011376Y023458D01*
X011364Y023527D01*
X011349Y023595D01*
X011330Y023662D01*
X011307Y023729D01*
X011280Y023793D01*
X011250Y023857D01*
X011216Y023918D01*
X011179Y023977D01*
X011138Y024035D01*
X011095Y024089D01*
X011048Y024142D01*
X010999Y024191D01*
X010947Y024238D01*
X010892Y024282D01*
X010887Y024275D01*
X010941Y024231D01*
X010993Y024185D01*
X011042Y024136D01*
X011088Y024084D01*
X011131Y024029D01*
X011171Y023972D01*
X011208Y023913D01*
X011242Y023852D01*
X011272Y023790D01*
X011298Y023725D01*
X011321Y023660D01*
X011340Y023593D01*
X011356Y023525D01*
X011367Y023456D01*
X011375Y023387D01*
X011379Y023318D01*
X011378Y023248D01*
X011374Y023179D01*
X011367Y023110D01*
X011355Y023041D01*
X011339Y022974D01*
X011320Y022907D01*
X011297Y022841D01*
X011270Y022777D01*
X011240Y022714D01*
X011206Y022653D01*
X011169Y022595D01*
X011129Y022538D01*
X011086Y022484D01*
X011039Y022432D01*
X010990Y022383D01*
X010938Y022336D01*
X010884Y022293D01*
X010827Y022253D01*
X010768Y022216D01*
X010707Y022182D01*
X010644Y022152D01*
X010580Y022125D01*
X010515Y022102D01*
X010448Y022083D01*
X010380Y022068D01*
X010311Y022056D01*
X010242Y022048D01*
X010173Y022044D01*
X010103Y022044D01*
X010034Y022048D01*
X009965Y022056D01*
X009896Y022068D01*
X009828Y022083D01*
X009761Y022102D01*
X009696Y022125D01*
X009632Y022152D01*
X009569Y022182D01*
X009508Y022216D01*
X009449Y022253D01*
X009392Y022293D01*
X009338Y022336D01*
X009286Y022383D01*
X009237Y022432D01*
X009190Y022484D01*
X009147Y022538D01*
X009107Y022595D01*
X009070Y022653D01*
X009036Y022714D01*
X009006Y022777D01*
X008979Y022841D01*
X008956Y022907D01*
X008937Y022974D01*
X008921Y023041D01*
X008909Y023110D01*
X008902Y023179D01*
X008898Y023248D01*
X008897Y023318D01*
X008901Y023387D01*
X008909Y023456D01*
X008920Y023525D01*
X008936Y023593D01*
X008955Y023660D01*
X008978Y023725D01*
X009004Y023790D01*
X009034Y023852D01*
X009068Y023913D01*
X009105Y023972D01*
X009145Y024029D01*
X009188Y024084D01*
X009234Y024136D01*
X009283Y024185D01*
X009335Y024231D01*
X009389Y024275D01*
X009395Y024268D01*
X009341Y024224D01*
X009290Y024178D01*
X009241Y024129D01*
X009195Y024078D01*
X009152Y024024D01*
X009112Y023967D01*
X009076Y023909D01*
X009042Y023848D01*
X009012Y023786D01*
X008986Y023722D01*
X008964Y023657D01*
X008945Y023591D01*
X008929Y023523D01*
X008918Y023455D01*
X008910Y023387D01*
X008906Y023318D01*
X008907Y023249D01*
X008911Y023180D01*
X008918Y023111D01*
X008930Y023043D01*
X008945Y022976D01*
X008965Y022909D01*
X008988Y022844D01*
X009014Y022781D01*
X009044Y022718D01*
X009077Y022658D01*
X009114Y022600D01*
X009154Y022543D01*
X009197Y022489D01*
X009243Y022438D01*
X009292Y022389D01*
X009344Y022343D01*
X009398Y022300D01*
X009454Y022260D01*
X009513Y022224D01*
X009573Y022190D01*
X009635Y022160D01*
X009699Y022134D01*
X009764Y022111D01*
X009831Y022092D01*
X009898Y022077D01*
X009966Y022065D01*
X010035Y022057D01*
X010103Y022053D01*
X010173Y022053D01*
X010241Y022057D01*
X010310Y022065D01*
X010378Y022077D01*
X010445Y022092D01*
X010512Y022111D01*
X010577Y022134D01*
X010641Y022160D01*
X010703Y022190D01*
X010763Y022224D01*
X010822Y022260D01*
X010878Y022300D01*
X010932Y022343D01*
X010984Y022389D01*
X011033Y022438D01*
X011079Y022489D01*
X011122Y022543D01*
X011162Y022600D01*
X011199Y022658D01*
X011232Y022718D01*
X011262Y022781D01*
X011288Y022844D01*
X011311Y022909D01*
X011331Y022976D01*
X011346Y023043D01*
X011358Y023111D01*
X011365Y023180D01*
X011369Y023249D01*
X011370Y023318D01*
X011366Y023387D01*
X011358Y023455D01*
X011347Y023523D01*
X011331Y023591D01*
X011312Y023657D01*
X011290Y023722D01*
X011264Y023786D01*
X011234Y023848D01*
X011200Y023909D01*
X011164Y023967D01*
X011124Y024024D01*
X011081Y024078D01*
X011035Y024129D01*
X010986Y024178D01*
X010935Y024224D01*
X010881Y024268D01*
X010876Y024260D01*
X010930Y024217D01*
X010981Y024171D01*
X011030Y024121D01*
X011076Y024070D01*
X011119Y024015D01*
X011159Y023958D01*
X011195Y023900D01*
X011229Y023839D01*
X011258Y023776D01*
X011284Y023712D01*
X011306Y023646D01*
X011325Y023579D01*
X011340Y023512D01*
X011351Y023443D01*
X011358Y023374D01*
X011361Y023305D01*
X011360Y023236D01*
X011355Y023166D01*
X011347Y023098D01*
X011334Y023030D01*
X011318Y022962D01*
X011297Y022896D01*
X011274Y022831D01*
X011246Y022767D01*
X011215Y022705D01*
X011180Y022645D01*
X011142Y022587D01*
X011101Y022531D01*
X011057Y022478D01*
X011010Y022427D01*
X010960Y022379D01*
X010907Y022334D01*
X010852Y022292D01*
X010795Y022253D01*
X010735Y022218D01*
X010674Y022186D01*
X010611Y022157D01*
X010546Y022132D01*
X010480Y022111D01*
X010413Y022093D01*
X010345Y022080D01*
X010276Y022070D01*
X010207Y022064D01*
X010138Y022062D01*
X010069Y022064D01*
X010000Y022070D01*
X009931Y022080D01*
X009863Y022093D01*
X009796Y022111D01*
X009730Y022132D01*
X009665Y022157D01*
X009602Y022186D01*
X009541Y022218D01*
X009481Y022253D01*
X009424Y022292D01*
X009369Y022334D01*
X009316Y022379D01*
X009266Y022427D01*
X009219Y022478D01*
X009175Y022531D01*
X009134Y022587D01*
X009096Y022645D01*
X009061Y022705D01*
X009030Y022767D01*
X009002Y022831D01*
X008979Y022896D01*
X008958Y022962D01*
X008942Y023030D01*
X008929Y023098D01*
X008921Y023166D01*
X008916Y023236D01*
X008915Y023305D01*
X008918Y023374D01*
X008925Y023443D01*
X008936Y023512D01*
X008951Y023579D01*
X008970Y023646D01*
X008992Y023712D01*
X009018Y023776D01*
X009047Y023839D01*
X009081Y023900D01*
X009117Y023958D01*
X009157Y024015D01*
X009200Y024070D01*
X009246Y024121D01*
X009295Y024171D01*
X009346Y024217D01*
X009400Y024260D01*
X009406Y024253D01*
X009352Y024210D01*
X009301Y024164D01*
X009252Y024115D01*
X009207Y024064D01*
X009164Y024010D01*
X009125Y023953D01*
X009088Y023895D01*
X009055Y023835D01*
X009026Y023772D01*
X009000Y023709D01*
X008978Y023643D01*
X008960Y023577D01*
X008945Y023510D01*
X008934Y023442D01*
X008927Y023373D01*
X008924Y023305D01*
X008925Y023236D01*
X008930Y023167D01*
X008938Y023099D01*
X008951Y023031D01*
X008967Y022965D01*
X008987Y022899D01*
X009011Y022834D01*
X009038Y022771D01*
X009069Y022710D01*
X009103Y022650D01*
X009141Y022592D01*
X009182Y022537D01*
X009226Y022484D01*
X009273Y022434D01*
X009322Y022386D01*
X009374Y022341D01*
X009429Y022299D01*
X009486Y022261D01*
X009545Y022226D01*
X009606Y022194D01*
X009669Y022165D01*
X009733Y022141D01*
X009799Y022119D01*
X009865Y022102D01*
X009933Y022089D01*
X010001Y022079D01*
X010069Y022073D01*
X010138Y022071D01*
X010207Y022073D01*
X010275Y022079D01*
X010343Y022089D01*
X010411Y022102D01*
X010477Y022119D01*
X010543Y022141D01*
X010607Y022165D01*
X010670Y022194D01*
X010731Y022226D01*
X010790Y022261D01*
X010847Y022299D01*
X010902Y022341D01*
X010954Y022386D01*
X011003Y022434D01*
X011050Y022484D01*
X011094Y022537D01*
X011135Y022592D01*
X011173Y022650D01*
X011207Y022710D01*
X011238Y022771D01*
X011265Y022834D01*
X011289Y022899D01*
X011309Y022965D01*
X011325Y023031D01*
X011338Y023099D01*
X011346Y023167D01*
X011351Y023236D01*
X011352Y023305D01*
X011349Y023373D01*
X011342Y023442D01*
X011331Y023510D01*
X011316Y023577D01*
X011298Y023643D01*
X011276Y023709D01*
X011250Y023772D01*
X011221Y023835D01*
X011188Y023895D01*
X011151Y023953D01*
X011112Y024010D01*
X011069Y024064D01*
X011024Y024115D01*
X010975Y024164D01*
X010924Y024210D01*
X010870Y024253D01*
X006420Y024150D02*
X006474Y024078D01*
X006473Y024079D02*
X006420Y024036D01*
X006369Y023991D01*
X006321Y023942D01*
X006276Y023891D01*
X006233Y023837D01*
X006194Y023781D01*
X006158Y023723D01*
X006125Y023663D01*
X006096Y023602D01*
X006071Y023538D01*
X006049Y023474D01*
X006030Y023408D01*
X006016Y023341D01*
X006005Y023274D01*
X005998Y023206D01*
X005995Y023138D01*
X005996Y023069D01*
X006001Y023001D01*
X006009Y022933D01*
X006022Y022866D01*
X006038Y022800D01*
X006058Y022735D01*
X006081Y022670D01*
X006108Y022608D01*
X006139Y022547D01*
X006173Y022488D01*
X006210Y022430D01*
X006251Y022375D01*
X006295Y022323D01*
X006341Y022273D01*
X006390Y022226D01*
X006442Y022181D01*
X006496Y022140D01*
X006553Y022101D01*
X006612Y022066D01*
X006672Y022035D01*
X006734Y022007D01*
X006798Y021982D01*
X006863Y021961D01*
X006929Y021944D01*
X006996Y021930D01*
X007064Y021921D01*
X007132Y021915D01*
X007200Y021913D01*
X007268Y021915D01*
X007336Y021921D01*
X007404Y021930D01*
X007471Y021944D01*
X007537Y021961D01*
X007602Y021982D01*
X007666Y022007D01*
X007728Y022035D01*
X007788Y022066D01*
X007847Y022101D01*
X007904Y022140D01*
X007958Y022181D01*
X008010Y022226D01*
X008059Y022273D01*
X008105Y022323D01*
X008149Y022375D01*
X008190Y022430D01*
X008227Y022488D01*
X008261Y022547D01*
X008292Y022608D01*
X008319Y022670D01*
X008342Y022735D01*
X008362Y022800D01*
X008378Y022866D01*
X008391Y022933D01*
X008399Y023001D01*
X008404Y023069D01*
X008405Y023138D01*
X008402Y023206D01*
X008395Y023274D01*
X008384Y023341D01*
X008370Y023408D01*
X008351Y023474D01*
X008329Y023538D01*
X008304Y023602D01*
X008275Y023663D01*
X008242Y023723D01*
X008206Y023781D01*
X008167Y023837D01*
X008124Y023891D01*
X008079Y023942D01*
X008031Y023991D01*
X007980Y024036D01*
X007927Y024079D01*
X007980Y024150D01*
X007981Y024151D01*
X008036Y024107D01*
X008089Y024059D01*
X008140Y024009D01*
X008187Y023956D01*
X008231Y023901D01*
X008273Y023843D01*
X008311Y023783D01*
X008346Y023722D01*
X008377Y023658D01*
X008405Y023593D01*
X008429Y023526D01*
X008450Y023458D01*
X008466Y023389D01*
X008479Y023319D01*
X008488Y023249D01*
X008494Y023178D01*
X008495Y023107D01*
X008492Y023036D01*
X008486Y022965D01*
X008476Y022895D01*
X008462Y022826D01*
X008444Y022757D01*
X008422Y022689D01*
X008397Y022623D01*
X008368Y022558D01*
X008335Y022495D01*
X008299Y022434D01*
X008260Y022375D01*
X008218Y022318D01*
X008173Y022263D01*
X008124Y022211D01*
X008073Y022162D01*
X008020Y022115D01*
X007963Y022072D01*
X007905Y022032D01*
X007844Y021995D01*
X007782Y021961D01*
X007718Y021931D01*
X007652Y021904D01*
X007585Y021881D01*
X007516Y021862D01*
X007447Y021847D01*
X007377Y021835D01*
X007306Y021827D01*
X007235Y021823D01*
X007165Y021823D01*
X007094Y021827D01*
X007023Y021835D01*
X006953Y021847D01*
X006884Y021862D01*
X006815Y021881D01*
X006748Y021904D01*
X006682Y021931D01*
X006618Y021961D01*
X006556Y021995D01*
X006495Y022032D01*
X006437Y022072D01*
X006380Y022115D01*
X006327Y022162D01*
X006276Y022211D01*
X006227Y022263D01*
X006182Y022318D01*
X006140Y022375D01*
X006101Y022434D01*
X006065Y022495D01*
X006032Y022558D01*
X006003Y022623D01*
X005978Y022689D01*
X005956Y022757D01*
X005938Y022826D01*
X005924Y022895D01*
X005914Y022965D01*
X005908Y023036D01*
X005905Y023107D01*
X005906Y023178D01*
X005912Y023249D01*
X005921Y023319D01*
X005934Y023389D01*
X005950Y023458D01*
X005971Y023526D01*
X005995Y023593D01*
X006023Y023658D01*
X006054Y023722D01*
X006089Y023783D01*
X006127Y023843D01*
X006169Y023901D01*
X006213Y023956D01*
X006260Y024009D01*
X006311Y024059D01*
X006364Y024107D01*
X006419Y024151D01*
X006424Y024144D01*
X006369Y024099D01*
X006316Y024052D01*
X006265Y024001D01*
X006218Y023948D01*
X006173Y023892D01*
X006132Y023834D01*
X006094Y023774D01*
X006059Y023712D01*
X006028Y023648D01*
X006001Y023582D01*
X005977Y023515D01*
X005957Y023446D01*
X005940Y023377D01*
X005928Y023307D01*
X005919Y023236D01*
X005915Y023165D01*
X005914Y023094D01*
X005918Y023023D01*
X005925Y022952D01*
X005936Y022881D01*
X005951Y022812D01*
X005970Y022743D01*
X005993Y022675D01*
X006019Y022609D01*
X006049Y022544D01*
X006083Y022482D01*
X006119Y022421D01*
X006160Y022362D01*
X006203Y022305D01*
X006250Y022251D01*
X006299Y022200D01*
X006352Y022152D01*
X006406Y022106D01*
X006464Y022064D01*
X006523Y022025D01*
X006585Y021989D01*
X006648Y021956D01*
X006713Y021928D01*
X006780Y021902D01*
X006848Y021881D01*
X006917Y021863D01*
X006987Y021850D01*
X007058Y021840D01*
X007129Y021834D01*
X007200Y021832D01*
X007271Y021834D01*
X007342Y021840D01*
X007413Y021850D01*
X007483Y021863D01*
X007552Y021881D01*
X007620Y021902D01*
X007687Y021928D01*
X007752Y021956D01*
X007815Y021989D01*
X007877Y022025D01*
X007936Y022064D01*
X007994Y022106D01*
X008048Y022152D01*
X008101Y022200D01*
X008150Y022251D01*
X008197Y022305D01*
X008240Y022362D01*
X008281Y022421D01*
X008317Y022482D01*
X008351Y022544D01*
X008381Y022609D01*
X008407Y022675D01*
X008430Y022743D01*
X008449Y022812D01*
X008464Y022881D01*
X008475Y022952D01*
X008482Y023023D01*
X008486Y023094D01*
X008485Y023165D01*
X008481Y023236D01*
X008472Y023307D01*
X008460Y023377D01*
X008443Y023446D01*
X008423Y023515D01*
X008399Y023582D01*
X008372Y023648D01*
X008341Y023712D01*
X008306Y023774D01*
X008268Y023834D01*
X008227Y023892D01*
X008182Y023948D01*
X008135Y024001D01*
X008084Y024052D01*
X008031Y024099D01*
X007976Y024144D01*
X007970Y024137D01*
X008025Y024092D01*
X008078Y024045D01*
X008128Y023995D01*
X008175Y023942D01*
X008219Y023887D01*
X008261Y023829D01*
X008298Y023770D01*
X008333Y023708D01*
X008364Y023644D01*
X008391Y023579D01*
X008415Y023512D01*
X008435Y023444D01*
X008451Y023375D01*
X008463Y023306D01*
X008472Y023235D01*
X008476Y023165D01*
X008477Y023094D01*
X008473Y023023D01*
X008466Y022953D01*
X008455Y022883D01*
X008440Y022814D01*
X008421Y022746D01*
X008399Y022678D01*
X008373Y022613D01*
X008343Y022548D01*
X008310Y022486D01*
X008273Y022426D01*
X008233Y022367D01*
X008190Y022311D01*
X008144Y022257D01*
X008094Y022207D01*
X008043Y022158D01*
X007988Y022113D01*
X007931Y022071D01*
X007872Y022032D01*
X007811Y021997D01*
X007748Y021964D01*
X007683Y021936D01*
X007617Y021911D01*
X007549Y021890D01*
X007481Y021872D01*
X007411Y021859D01*
X007341Y021849D01*
X007271Y021843D01*
X007200Y021841D01*
X007129Y021843D01*
X007059Y021849D01*
X006989Y021859D01*
X006919Y021872D01*
X006851Y021890D01*
X006783Y021911D01*
X006717Y021936D01*
X006652Y021964D01*
X006589Y021997D01*
X006528Y022032D01*
X006469Y022071D01*
X006412Y022113D01*
X006357Y022158D01*
X006306Y022207D01*
X006256Y022257D01*
X006210Y022311D01*
X006167Y022367D01*
X006127Y022426D01*
X006090Y022486D01*
X006057Y022548D01*
X006027Y022613D01*
X006001Y022678D01*
X005979Y022746D01*
X005960Y022814D01*
X005945Y022883D01*
X005934Y022953D01*
X005927Y023023D01*
X005923Y023094D01*
X005924Y023165D01*
X005928Y023235D01*
X005937Y023306D01*
X005949Y023375D01*
X005965Y023444D01*
X005985Y023512D01*
X006009Y023579D01*
X006036Y023644D01*
X006067Y023708D01*
X006102Y023770D01*
X006139Y023829D01*
X006181Y023887D01*
X006225Y023942D01*
X006272Y023995D01*
X006322Y024045D01*
X006375Y024092D01*
X006430Y024137D01*
X006435Y024129D01*
X006380Y024085D01*
X006327Y024037D01*
X006277Y023987D01*
X006229Y023934D01*
X006185Y023878D01*
X006144Y023820D01*
X006107Y023760D01*
X006072Y023698D01*
X006042Y023634D01*
X006015Y023568D01*
X005991Y023501D01*
X005972Y023433D01*
X005956Y023363D01*
X005944Y023293D01*
X005936Y023223D01*
X005932Y023152D01*
X005933Y023081D01*
X005937Y023010D01*
X005945Y022939D01*
X005957Y022869D01*
X005973Y022800D01*
X005992Y022732D01*
X006016Y022664D01*
X006043Y022599D01*
X006074Y022535D01*
X006108Y022473D01*
X006146Y022413D01*
X006188Y022355D01*
X006232Y022299D01*
X006279Y022246D01*
X006330Y022196D01*
X006383Y022149D01*
X006438Y022104D01*
X006496Y022063D01*
X006556Y022026D01*
X006619Y021991D01*
X006683Y021960D01*
X006748Y021933D01*
X006815Y021910D01*
X006884Y021890D01*
X006953Y021874D01*
X007023Y021862D01*
X007094Y021854D01*
X007164Y021850D01*
X007236Y021850D01*
X007306Y021854D01*
X007377Y021862D01*
X007447Y021874D01*
X007516Y021890D01*
X007585Y021910D01*
X007652Y021933D01*
X007717Y021960D01*
X007781Y021991D01*
X007844Y022026D01*
X007904Y022063D01*
X007962Y022104D01*
X008017Y022149D01*
X008070Y022196D01*
X008121Y022246D01*
X008168Y022299D01*
X008212Y022355D01*
X008254Y022413D01*
X008292Y022473D01*
X008326Y022535D01*
X008357Y022599D01*
X008384Y022664D01*
X008408Y022732D01*
X008427Y022800D01*
X008443Y022869D01*
X008455Y022939D01*
X008463Y023010D01*
X008467Y023081D01*
X008468Y023152D01*
X008464Y023223D01*
X008456Y023293D01*
X008444Y023363D01*
X008428Y023433D01*
X008409Y023501D01*
X008385Y023568D01*
X008358Y023634D01*
X008328Y023698D01*
X008293Y023760D01*
X008256Y023820D01*
X008215Y023878D01*
X008171Y023934D01*
X008123Y023987D01*
X008073Y024037D01*
X008020Y024085D01*
X007965Y024129D01*
X007959Y024122D01*
X008014Y024078D01*
X008067Y024031D01*
X008117Y023981D01*
X008164Y023928D01*
X008208Y023873D01*
X008248Y023815D01*
X008286Y023756D01*
X008320Y023694D01*
X008350Y023630D01*
X008377Y023565D01*
X008400Y023498D01*
X008420Y023430D01*
X008435Y023362D01*
X008447Y023292D01*
X008455Y023222D01*
X008459Y023151D01*
X008458Y023081D01*
X008454Y023010D01*
X008446Y022940D01*
X008434Y022871D01*
X008419Y022802D01*
X008399Y022734D01*
X008376Y022668D01*
X008349Y022603D01*
X008318Y022539D01*
X008284Y022477D01*
X008246Y022418D01*
X008205Y022360D01*
X008161Y022305D01*
X008114Y022252D01*
X008064Y022203D01*
X008012Y022156D01*
X007956Y022112D01*
X007899Y022071D01*
X007839Y022033D01*
X007777Y021999D01*
X007714Y021969D01*
X007649Y021942D01*
X007582Y021918D01*
X007514Y021899D01*
X007445Y021883D01*
X007376Y021871D01*
X007306Y021863D01*
X007235Y021859D01*
X007165Y021859D01*
X007094Y021863D01*
X007024Y021871D01*
X006955Y021883D01*
X006886Y021899D01*
X006818Y021918D01*
X006751Y021942D01*
X006686Y021969D01*
X006623Y021999D01*
X006561Y022033D01*
X006501Y022071D01*
X006444Y022112D01*
X006388Y022156D01*
X006336Y022203D01*
X006286Y022252D01*
X006239Y022305D01*
X006195Y022360D01*
X006154Y022418D01*
X006116Y022477D01*
X006082Y022539D01*
X006051Y022603D01*
X006024Y022668D01*
X006001Y022734D01*
X005981Y022802D01*
X005966Y022871D01*
X005954Y022940D01*
X005946Y023010D01*
X005942Y023081D01*
X005941Y023151D01*
X005945Y023222D01*
X005953Y023292D01*
X005965Y023362D01*
X005980Y023430D01*
X006000Y023498D01*
X006023Y023565D01*
X006050Y023630D01*
X006080Y023694D01*
X006114Y023756D01*
X006152Y023815D01*
X006192Y023873D01*
X006236Y023928D01*
X006283Y023981D01*
X006333Y024031D01*
X006386Y024078D01*
X006441Y024122D01*
X006446Y024115D01*
X006391Y024071D01*
X006339Y024024D01*
X006290Y023975D01*
X006243Y023922D01*
X006200Y023868D01*
X006159Y023810D01*
X006122Y023751D01*
X006088Y023690D01*
X006058Y023626D01*
X006031Y023562D01*
X006008Y023495D01*
X005989Y023428D01*
X005974Y023360D01*
X005962Y023291D01*
X005954Y023221D01*
X005950Y023151D01*
X005951Y023081D01*
X005955Y023011D01*
X005963Y022942D01*
X005974Y022873D01*
X005990Y022804D01*
X006009Y022737D01*
X006033Y022671D01*
X006060Y022606D01*
X006090Y022543D01*
X006124Y022482D01*
X006161Y022423D01*
X006202Y022365D01*
X006246Y022311D01*
X006292Y022259D01*
X006342Y022209D01*
X006394Y022162D01*
X006449Y022119D01*
X006506Y022078D01*
X006565Y022041D01*
X006627Y022007D01*
X006690Y021977D01*
X006755Y021950D01*
X006821Y021927D01*
X006888Y021908D01*
X006956Y021892D01*
X007025Y021880D01*
X007095Y021872D01*
X007165Y021868D01*
X007235Y021868D01*
X007305Y021872D01*
X007375Y021880D01*
X007444Y021892D01*
X007512Y021908D01*
X007579Y021927D01*
X007645Y021950D01*
X007710Y021977D01*
X007773Y022007D01*
X007835Y022041D01*
X007894Y022078D01*
X007951Y022119D01*
X008006Y022162D01*
X008058Y022209D01*
X008108Y022259D01*
X008154Y022311D01*
X008198Y022365D01*
X008239Y022423D01*
X008276Y022482D01*
X008310Y022543D01*
X008340Y022606D01*
X008367Y022671D01*
X008391Y022737D01*
X008410Y022804D01*
X008426Y022873D01*
X008437Y022942D01*
X008445Y023011D01*
X008449Y023081D01*
X008450Y023151D01*
X008446Y023221D01*
X008438Y023291D01*
X008426Y023360D01*
X008411Y023428D01*
X008392Y023495D01*
X008369Y023562D01*
X008342Y023626D01*
X008312Y023690D01*
X008278Y023751D01*
X008241Y023810D01*
X008200Y023868D01*
X008157Y023922D01*
X008110Y023975D01*
X008061Y024024D01*
X008009Y024071D01*
X007954Y024115D01*
X007949Y024108D01*
X008003Y024064D01*
X008055Y024018D01*
X008104Y023969D01*
X008150Y023917D01*
X008193Y023862D01*
X008233Y023805D01*
X008270Y023746D01*
X008304Y023685D01*
X008334Y023623D01*
X008360Y023558D01*
X008383Y023493D01*
X008402Y023426D01*
X008418Y023358D01*
X008429Y023289D01*
X008437Y023220D01*
X008441Y023151D01*
X008440Y023081D01*
X008436Y023012D01*
X008429Y022943D01*
X008417Y022874D01*
X008401Y022807D01*
X008382Y022740D01*
X008359Y022674D01*
X008332Y022610D01*
X008302Y022547D01*
X008268Y022486D01*
X008231Y022428D01*
X008191Y022371D01*
X008148Y022317D01*
X008101Y022265D01*
X008052Y022216D01*
X008000Y022169D01*
X007946Y022126D01*
X007889Y022086D01*
X007830Y022049D01*
X007769Y022015D01*
X007706Y021985D01*
X007642Y021958D01*
X007577Y021935D01*
X007510Y021916D01*
X007442Y021901D01*
X007373Y021889D01*
X007304Y021881D01*
X007235Y021877D01*
X007165Y021877D01*
X007096Y021881D01*
X007027Y021889D01*
X006958Y021901D01*
X006890Y021916D01*
X006823Y021935D01*
X006758Y021958D01*
X006694Y021985D01*
X006631Y022015D01*
X006570Y022049D01*
X006511Y022086D01*
X006454Y022126D01*
X006400Y022169D01*
X006348Y022216D01*
X006299Y022265D01*
X006252Y022317D01*
X006209Y022371D01*
X006169Y022428D01*
X006132Y022486D01*
X006098Y022547D01*
X006068Y022610D01*
X006041Y022674D01*
X006018Y022740D01*
X005999Y022807D01*
X005983Y022874D01*
X005971Y022943D01*
X005964Y023012D01*
X005960Y023081D01*
X005959Y023151D01*
X005963Y023220D01*
X005971Y023289D01*
X005982Y023358D01*
X005998Y023426D01*
X006017Y023493D01*
X006040Y023558D01*
X006066Y023623D01*
X006096Y023685D01*
X006130Y023746D01*
X006167Y023805D01*
X006207Y023862D01*
X006250Y023917D01*
X006296Y023969D01*
X006345Y024018D01*
X006397Y024064D01*
X006451Y024108D01*
X006457Y024101D01*
X006403Y024057D01*
X006352Y024011D01*
X006303Y023962D01*
X006257Y023911D01*
X006214Y023857D01*
X006174Y023800D01*
X006138Y023742D01*
X006104Y023681D01*
X006074Y023619D01*
X006048Y023555D01*
X006026Y023490D01*
X006007Y023424D01*
X005991Y023356D01*
X005980Y023288D01*
X005972Y023220D01*
X005968Y023151D01*
X005969Y023082D01*
X005973Y023013D01*
X005980Y022944D01*
X005992Y022876D01*
X006007Y022809D01*
X006027Y022742D01*
X006050Y022677D01*
X006076Y022614D01*
X006106Y022551D01*
X006139Y022491D01*
X006176Y022433D01*
X006216Y022376D01*
X006259Y022322D01*
X006305Y022271D01*
X006354Y022222D01*
X006406Y022176D01*
X006460Y022133D01*
X006516Y022093D01*
X006575Y022057D01*
X006635Y022023D01*
X006697Y021993D01*
X006761Y021967D01*
X006826Y021944D01*
X006893Y021925D01*
X006960Y021910D01*
X007028Y021898D01*
X007097Y021890D01*
X007165Y021886D01*
X007235Y021886D01*
X007303Y021890D01*
X007372Y021898D01*
X007440Y021910D01*
X007507Y021925D01*
X007574Y021944D01*
X007639Y021967D01*
X007703Y021993D01*
X007765Y022023D01*
X007825Y022057D01*
X007884Y022093D01*
X007940Y022133D01*
X007994Y022176D01*
X008046Y022222D01*
X008095Y022271D01*
X008141Y022322D01*
X008184Y022376D01*
X008224Y022433D01*
X008261Y022491D01*
X008294Y022551D01*
X008324Y022614D01*
X008350Y022677D01*
X008373Y022742D01*
X008393Y022809D01*
X008408Y022876D01*
X008420Y022944D01*
X008427Y023013D01*
X008431Y023082D01*
X008432Y023151D01*
X008428Y023220D01*
X008420Y023288D01*
X008409Y023356D01*
X008393Y023424D01*
X008374Y023490D01*
X008352Y023555D01*
X008326Y023619D01*
X008296Y023681D01*
X008262Y023742D01*
X008226Y023800D01*
X008186Y023857D01*
X008143Y023911D01*
X008097Y023962D01*
X008048Y024011D01*
X007997Y024057D01*
X007943Y024101D01*
X007938Y024093D01*
X007992Y024050D01*
X008043Y024004D01*
X008092Y023954D01*
X008138Y023903D01*
X008181Y023848D01*
X008221Y023791D01*
X008257Y023733D01*
X008291Y023672D01*
X008320Y023609D01*
X008346Y023545D01*
X008368Y023479D01*
X008387Y023412D01*
X008402Y023345D01*
X008413Y023276D01*
X008420Y023207D01*
X008423Y023138D01*
X008422Y023069D01*
X008417Y022999D01*
X008409Y022931D01*
X008396Y022863D01*
X008380Y022795D01*
X008359Y022729D01*
X008336Y022664D01*
X008308Y022600D01*
X008277Y022538D01*
X008242Y022478D01*
X008204Y022420D01*
X008163Y022364D01*
X008119Y022311D01*
X008072Y022260D01*
X008022Y022212D01*
X007969Y022167D01*
X007914Y022125D01*
X007857Y022086D01*
X007797Y022051D01*
X007736Y022019D01*
X007673Y021990D01*
X007608Y021965D01*
X007542Y021944D01*
X007475Y021926D01*
X007407Y021913D01*
X007338Y021903D01*
X007269Y021897D01*
X007200Y021895D01*
X007131Y021897D01*
X007062Y021903D01*
X006993Y021913D01*
X006925Y021926D01*
X006858Y021944D01*
X006792Y021965D01*
X006727Y021990D01*
X006664Y022019D01*
X006603Y022051D01*
X006543Y022086D01*
X006486Y022125D01*
X006431Y022167D01*
X006378Y022212D01*
X006328Y022260D01*
X006281Y022311D01*
X006237Y022364D01*
X006196Y022420D01*
X006158Y022478D01*
X006123Y022538D01*
X006092Y022600D01*
X006064Y022664D01*
X006041Y022729D01*
X006020Y022795D01*
X006004Y022863D01*
X005991Y022931D01*
X005983Y022999D01*
X005978Y023069D01*
X005977Y023138D01*
X005980Y023207D01*
X005987Y023276D01*
X005998Y023345D01*
X006013Y023412D01*
X006032Y023479D01*
X006054Y023545D01*
X006080Y023609D01*
X006109Y023672D01*
X006143Y023733D01*
X006179Y023791D01*
X006219Y023848D01*
X006262Y023903D01*
X006308Y023954D01*
X006357Y024004D01*
X006408Y024050D01*
X006462Y024093D01*
X006468Y024086D01*
X006414Y024043D01*
X006363Y023997D01*
X006314Y023948D01*
X006269Y023897D01*
X006226Y023843D01*
X006187Y023786D01*
X006150Y023728D01*
X006117Y023668D01*
X006088Y023605D01*
X006062Y023542D01*
X006040Y023476D01*
X006022Y023410D01*
X006007Y023343D01*
X005996Y023275D01*
X005989Y023206D01*
X005986Y023138D01*
X005987Y023069D01*
X005992Y023000D01*
X006000Y022932D01*
X006013Y022864D01*
X006029Y022798D01*
X006049Y022732D01*
X006073Y022667D01*
X006100Y022604D01*
X006131Y022543D01*
X006165Y022483D01*
X006203Y022425D01*
X006244Y022370D01*
X006288Y022317D01*
X006335Y022267D01*
X006384Y022219D01*
X006436Y022174D01*
X006491Y022132D01*
X006548Y022094D01*
X006607Y022059D01*
X006668Y022027D01*
X006731Y021998D01*
X006795Y021974D01*
X006861Y021952D01*
X006927Y021935D01*
X006995Y021922D01*
X007063Y021912D01*
X007131Y021906D01*
X007200Y021904D01*
X007269Y021906D01*
X007337Y021912D01*
X007405Y021922D01*
X007473Y021935D01*
X007539Y021952D01*
X007605Y021974D01*
X007669Y021998D01*
X007732Y022027D01*
X007793Y022059D01*
X007852Y022094D01*
X007909Y022132D01*
X007964Y022174D01*
X008016Y022219D01*
X008065Y022267D01*
X008112Y022317D01*
X008156Y022370D01*
X008197Y022425D01*
X008235Y022483D01*
X008269Y022543D01*
X008300Y022604D01*
X008327Y022667D01*
X008351Y022732D01*
X008371Y022798D01*
X008387Y022864D01*
X008400Y022932D01*
X008408Y023000D01*
X008413Y023069D01*
X008414Y023138D01*
X008411Y023206D01*
X008404Y023275D01*
X008393Y023343D01*
X008378Y023410D01*
X008360Y023476D01*
X008338Y023542D01*
X008312Y023605D01*
X008283Y023668D01*
X008250Y023728D01*
X008213Y023786D01*
X008174Y023843D01*
X008131Y023897D01*
X008086Y023948D01*
X008037Y023997D01*
X007986Y024043D01*
X007932Y024086D01*
X003324Y024103D02*
X003378Y024031D01*
X003377Y024032D02*
X003324Y023989D01*
X003273Y023944D01*
X003225Y023895D01*
X003180Y023844D01*
X003137Y023790D01*
X003098Y023734D01*
X003062Y023676D01*
X003029Y023616D01*
X003000Y023555D01*
X002975Y023491D01*
X002953Y023427D01*
X002934Y023361D01*
X002920Y023294D01*
X002909Y023227D01*
X002902Y023159D01*
X002899Y023091D01*
X002900Y023022D01*
X002905Y022954D01*
X002913Y022886D01*
X002926Y022819D01*
X002942Y022753D01*
X002962Y022688D01*
X002985Y022623D01*
X003012Y022561D01*
X003043Y022500D01*
X003077Y022441D01*
X003114Y022383D01*
X003155Y022328D01*
X003199Y022276D01*
X003245Y022226D01*
X003294Y022179D01*
X003346Y022134D01*
X003400Y022093D01*
X003457Y022054D01*
X003516Y022019D01*
X003576Y021988D01*
X003638Y021960D01*
X003702Y021935D01*
X003767Y021914D01*
X003833Y021897D01*
X003900Y021883D01*
X003968Y021874D01*
X004036Y021868D01*
X004104Y021866D01*
X004172Y021868D01*
X004240Y021874D01*
X004308Y021883D01*
X004375Y021897D01*
X004441Y021914D01*
X004506Y021935D01*
X004570Y021960D01*
X004632Y021988D01*
X004692Y022019D01*
X004751Y022054D01*
X004808Y022093D01*
X004862Y022134D01*
X004914Y022179D01*
X004963Y022226D01*
X005009Y022276D01*
X005053Y022328D01*
X005094Y022383D01*
X005131Y022441D01*
X005165Y022500D01*
X005196Y022561D01*
X005223Y022623D01*
X005246Y022688D01*
X005266Y022753D01*
X005282Y022819D01*
X005295Y022886D01*
X005303Y022954D01*
X005308Y023022D01*
X005309Y023091D01*
X005306Y023159D01*
X005299Y023227D01*
X005288Y023294D01*
X005274Y023361D01*
X005255Y023427D01*
X005233Y023491D01*
X005208Y023555D01*
X005179Y023616D01*
X005146Y023676D01*
X005110Y023734D01*
X005071Y023790D01*
X005028Y023844D01*
X004983Y023895D01*
X004935Y023944D01*
X004884Y023989D01*
X004831Y024032D01*
X004884Y024103D01*
X004885Y024104D01*
X004940Y024060D01*
X004993Y024012D01*
X005044Y023962D01*
X005091Y023909D01*
X005135Y023854D01*
X005177Y023796D01*
X005215Y023736D01*
X005250Y023675D01*
X005281Y023611D01*
X005309Y023546D01*
X005333Y023479D01*
X005354Y023411D01*
X005370Y023342D01*
X005383Y023272D01*
X005392Y023202D01*
X005398Y023131D01*
X005399Y023060D01*
X005396Y022989D01*
X005390Y022918D01*
X005380Y022848D01*
X005366Y022779D01*
X005348Y022710D01*
X005326Y022642D01*
X005301Y022576D01*
X005272Y022511D01*
X005239Y022448D01*
X005203Y022387D01*
X005164Y022328D01*
X005122Y022271D01*
X005077Y022216D01*
X005028Y022164D01*
X004977Y022115D01*
X004924Y022068D01*
X004867Y022025D01*
X004809Y021985D01*
X004748Y021948D01*
X004686Y021914D01*
X004622Y021884D01*
X004556Y021857D01*
X004489Y021834D01*
X004420Y021815D01*
X004351Y021800D01*
X004281Y021788D01*
X004210Y021780D01*
X004139Y021776D01*
X004069Y021776D01*
X003998Y021780D01*
X003927Y021788D01*
X003857Y021800D01*
X003788Y021815D01*
X003719Y021834D01*
X003652Y021857D01*
X003586Y021884D01*
X003522Y021914D01*
X003460Y021948D01*
X003399Y021985D01*
X003341Y022025D01*
X003284Y022068D01*
X003231Y022115D01*
X003180Y022164D01*
X003131Y022216D01*
X003086Y022271D01*
X003044Y022328D01*
X003005Y022387D01*
X002969Y022448D01*
X002936Y022511D01*
X002907Y022576D01*
X002882Y022642D01*
X002860Y022710D01*
X002842Y022779D01*
X002828Y022848D01*
X002818Y022918D01*
X002812Y022989D01*
X002809Y023060D01*
X002810Y023131D01*
X002816Y023202D01*
X002825Y023272D01*
X002838Y023342D01*
X002854Y023411D01*
X002875Y023479D01*
X002899Y023546D01*
X002927Y023611D01*
X002958Y023675D01*
X002993Y023736D01*
X003031Y023796D01*
X003073Y023854D01*
X003117Y023909D01*
X003164Y023962D01*
X003215Y024012D01*
X003268Y024060D01*
X003323Y024104D01*
X003328Y024097D01*
X003273Y024052D01*
X003220Y024005D01*
X003169Y023954D01*
X003122Y023901D01*
X003077Y023845D01*
X003036Y023787D01*
X002998Y023727D01*
X002963Y023665D01*
X002932Y023601D01*
X002905Y023535D01*
X002881Y023468D01*
X002861Y023399D01*
X002844Y023330D01*
X002832Y023260D01*
X002823Y023189D01*
X002819Y023118D01*
X002818Y023047D01*
X002822Y022976D01*
X002829Y022905D01*
X002840Y022834D01*
X002855Y022765D01*
X002874Y022696D01*
X002897Y022628D01*
X002923Y022562D01*
X002953Y022497D01*
X002987Y022435D01*
X003023Y022374D01*
X003064Y022315D01*
X003107Y022258D01*
X003154Y022204D01*
X003203Y022153D01*
X003256Y022105D01*
X003310Y022059D01*
X003368Y022017D01*
X003427Y021978D01*
X003489Y021942D01*
X003552Y021909D01*
X003617Y021881D01*
X003684Y021855D01*
X003752Y021834D01*
X003821Y021816D01*
X003891Y021803D01*
X003962Y021793D01*
X004033Y021787D01*
X004104Y021785D01*
X004175Y021787D01*
X004246Y021793D01*
X004317Y021803D01*
X004387Y021816D01*
X004456Y021834D01*
X004524Y021855D01*
X004591Y021881D01*
X004656Y021909D01*
X004719Y021942D01*
X004781Y021978D01*
X004840Y022017D01*
X004898Y022059D01*
X004952Y022105D01*
X005005Y022153D01*
X005054Y022204D01*
X005101Y022258D01*
X005144Y022315D01*
X005185Y022374D01*
X005221Y022435D01*
X005255Y022497D01*
X005285Y022562D01*
X005311Y022628D01*
X005334Y022696D01*
X005353Y022765D01*
X005368Y022834D01*
X005379Y022905D01*
X005386Y022976D01*
X005390Y023047D01*
X005389Y023118D01*
X005385Y023189D01*
X005376Y023260D01*
X005364Y023330D01*
X005347Y023399D01*
X005327Y023468D01*
X005303Y023535D01*
X005276Y023601D01*
X005245Y023665D01*
X005210Y023727D01*
X005172Y023787D01*
X005131Y023845D01*
X005086Y023901D01*
X005039Y023954D01*
X004988Y024005D01*
X004935Y024052D01*
X004880Y024097D01*
X004874Y024090D01*
X004929Y024045D01*
X004982Y023998D01*
X005032Y023948D01*
X005079Y023895D01*
X005123Y023840D01*
X005165Y023782D01*
X005202Y023723D01*
X005237Y023661D01*
X005268Y023597D01*
X005295Y023532D01*
X005319Y023465D01*
X005339Y023397D01*
X005355Y023328D01*
X005367Y023259D01*
X005376Y023188D01*
X005380Y023118D01*
X005381Y023047D01*
X005377Y022976D01*
X005370Y022906D01*
X005359Y022836D01*
X005344Y022767D01*
X005325Y022699D01*
X005303Y022631D01*
X005277Y022566D01*
X005247Y022501D01*
X005214Y022439D01*
X005177Y022379D01*
X005137Y022320D01*
X005094Y022264D01*
X005048Y022210D01*
X004998Y022160D01*
X004947Y022111D01*
X004892Y022066D01*
X004835Y022024D01*
X004776Y021985D01*
X004715Y021950D01*
X004652Y021917D01*
X004587Y021889D01*
X004521Y021864D01*
X004453Y021843D01*
X004385Y021825D01*
X004315Y021812D01*
X004245Y021802D01*
X004175Y021796D01*
X004104Y021794D01*
X004033Y021796D01*
X003963Y021802D01*
X003893Y021812D01*
X003823Y021825D01*
X003755Y021843D01*
X003687Y021864D01*
X003621Y021889D01*
X003556Y021917D01*
X003493Y021950D01*
X003432Y021985D01*
X003373Y022024D01*
X003316Y022066D01*
X003261Y022111D01*
X003210Y022160D01*
X003160Y022210D01*
X003114Y022264D01*
X003071Y022320D01*
X003031Y022379D01*
X002994Y022439D01*
X002961Y022501D01*
X002931Y022566D01*
X002905Y022631D01*
X002883Y022699D01*
X002864Y022767D01*
X002849Y022836D01*
X002838Y022906D01*
X002831Y022976D01*
X002827Y023047D01*
X002828Y023118D01*
X002832Y023188D01*
X002841Y023259D01*
X002853Y023328D01*
X002869Y023397D01*
X002889Y023465D01*
X002913Y023532D01*
X002940Y023597D01*
X002971Y023661D01*
X003006Y023723D01*
X003043Y023782D01*
X003085Y023840D01*
X003129Y023895D01*
X003176Y023948D01*
X003226Y023998D01*
X003279Y024045D01*
X003334Y024090D01*
X003339Y024082D01*
X003284Y024038D01*
X003231Y023990D01*
X003181Y023940D01*
X003133Y023887D01*
X003089Y023831D01*
X003048Y023773D01*
X003011Y023713D01*
X002976Y023651D01*
X002946Y023587D01*
X002919Y023521D01*
X002895Y023454D01*
X002876Y023386D01*
X002860Y023316D01*
X002848Y023246D01*
X002840Y023176D01*
X002836Y023105D01*
X002837Y023034D01*
X002841Y022963D01*
X002849Y022892D01*
X002861Y022822D01*
X002877Y022753D01*
X002896Y022685D01*
X002920Y022617D01*
X002947Y022552D01*
X002978Y022488D01*
X003012Y022426D01*
X003050Y022366D01*
X003092Y022308D01*
X003136Y022252D01*
X003183Y022199D01*
X003234Y022149D01*
X003287Y022102D01*
X003342Y022057D01*
X003400Y022016D01*
X003460Y021979D01*
X003523Y021944D01*
X003587Y021913D01*
X003652Y021886D01*
X003719Y021863D01*
X003788Y021843D01*
X003857Y021827D01*
X003927Y021815D01*
X003998Y021807D01*
X004068Y021803D01*
X004140Y021803D01*
X004210Y021807D01*
X004281Y021815D01*
X004351Y021827D01*
X004420Y021843D01*
X004489Y021863D01*
X004556Y021886D01*
X004621Y021913D01*
X004685Y021944D01*
X004748Y021979D01*
X004808Y022016D01*
X004866Y022057D01*
X004921Y022102D01*
X004974Y022149D01*
X005025Y022199D01*
X005072Y022252D01*
X005116Y022308D01*
X005158Y022366D01*
X005196Y022426D01*
X005230Y022488D01*
X005261Y022552D01*
X005288Y022617D01*
X005312Y022685D01*
X005331Y022753D01*
X005347Y022822D01*
X005359Y022892D01*
X005367Y022963D01*
X005371Y023034D01*
X005372Y023105D01*
X005368Y023176D01*
X005360Y023246D01*
X005348Y023316D01*
X005332Y023386D01*
X005313Y023454D01*
X005289Y023521D01*
X005262Y023587D01*
X005232Y023651D01*
X005197Y023713D01*
X005160Y023773D01*
X005119Y023831D01*
X005075Y023887D01*
X005027Y023940D01*
X004977Y023990D01*
X004924Y024038D01*
X004869Y024082D01*
X004863Y024075D01*
X004918Y024031D01*
X004971Y023984D01*
X005021Y023934D01*
X005068Y023881D01*
X005112Y023826D01*
X005152Y023768D01*
X005190Y023709D01*
X005224Y023647D01*
X005254Y023583D01*
X005281Y023518D01*
X005304Y023451D01*
X005324Y023383D01*
X005339Y023315D01*
X005351Y023245D01*
X005359Y023175D01*
X005363Y023104D01*
X005362Y023034D01*
X005358Y022963D01*
X005350Y022893D01*
X005338Y022824D01*
X005323Y022755D01*
X005303Y022687D01*
X005280Y022621D01*
X005253Y022556D01*
X005222Y022492D01*
X005188Y022430D01*
X005150Y022371D01*
X005109Y022313D01*
X005065Y022258D01*
X005018Y022205D01*
X004968Y022156D01*
X004916Y022109D01*
X004860Y022065D01*
X004803Y022024D01*
X004743Y021986D01*
X004681Y021952D01*
X004618Y021922D01*
X004553Y021895D01*
X004486Y021871D01*
X004418Y021852D01*
X004349Y021836D01*
X004280Y021824D01*
X004210Y021816D01*
X004139Y021812D01*
X004069Y021812D01*
X003998Y021816D01*
X003928Y021824D01*
X003859Y021836D01*
X003790Y021852D01*
X003722Y021871D01*
X003655Y021895D01*
X003590Y021922D01*
X003527Y021952D01*
X003465Y021986D01*
X003405Y022024D01*
X003348Y022065D01*
X003292Y022109D01*
X003240Y022156D01*
X003190Y022205D01*
X003143Y022258D01*
X003099Y022313D01*
X003058Y022371D01*
X003020Y022430D01*
X002986Y022492D01*
X002955Y022556D01*
X002928Y022621D01*
X002905Y022687D01*
X002885Y022755D01*
X002870Y022824D01*
X002858Y022893D01*
X002850Y022963D01*
X002846Y023034D01*
X002845Y023104D01*
X002849Y023175D01*
X002857Y023245D01*
X002869Y023315D01*
X002884Y023383D01*
X002904Y023451D01*
X002927Y023518D01*
X002954Y023583D01*
X002984Y023647D01*
X003018Y023709D01*
X003056Y023768D01*
X003096Y023826D01*
X003140Y023881D01*
X003187Y023934D01*
X003237Y023984D01*
X003290Y024031D01*
X003345Y024075D01*
X003350Y024068D01*
X003295Y024024D01*
X003243Y023977D01*
X003194Y023928D01*
X003147Y023875D01*
X003104Y023821D01*
X003063Y023763D01*
X003026Y023704D01*
X002992Y023643D01*
X002962Y023579D01*
X002935Y023515D01*
X002912Y023448D01*
X002893Y023381D01*
X002878Y023313D01*
X002866Y023244D01*
X002858Y023174D01*
X002854Y023104D01*
X002855Y023034D01*
X002859Y022964D01*
X002867Y022895D01*
X002878Y022826D01*
X002894Y022757D01*
X002913Y022690D01*
X002937Y022624D01*
X002964Y022559D01*
X002994Y022496D01*
X003028Y022435D01*
X003065Y022376D01*
X003106Y022318D01*
X003150Y022264D01*
X003196Y022212D01*
X003246Y022162D01*
X003298Y022115D01*
X003353Y022072D01*
X003410Y022031D01*
X003469Y021994D01*
X003531Y021960D01*
X003594Y021930D01*
X003659Y021903D01*
X003725Y021880D01*
X003792Y021861D01*
X003860Y021845D01*
X003929Y021833D01*
X003999Y021825D01*
X004069Y021821D01*
X004139Y021821D01*
X004209Y021825D01*
X004279Y021833D01*
X004348Y021845D01*
X004416Y021861D01*
X004483Y021880D01*
X004549Y021903D01*
X004614Y021930D01*
X004677Y021960D01*
X004739Y021994D01*
X004798Y022031D01*
X004855Y022072D01*
X004910Y022115D01*
X004962Y022162D01*
X005012Y022212D01*
X005058Y022264D01*
X005102Y022318D01*
X005143Y022376D01*
X005180Y022435D01*
X005214Y022496D01*
X005244Y022559D01*
X005271Y022624D01*
X005295Y022690D01*
X005314Y022757D01*
X005330Y022826D01*
X005341Y022895D01*
X005349Y022964D01*
X005353Y023034D01*
X005354Y023104D01*
X005350Y023174D01*
X005342Y023244D01*
X005330Y023313D01*
X005315Y023381D01*
X005296Y023448D01*
X005273Y023515D01*
X005246Y023579D01*
X005216Y023643D01*
X005182Y023704D01*
X005145Y023763D01*
X005104Y023821D01*
X005061Y023875D01*
X005014Y023928D01*
X004965Y023977D01*
X004913Y024024D01*
X004858Y024068D01*
X004853Y024061D01*
X004907Y024017D01*
X004959Y023971D01*
X005008Y023922D01*
X005054Y023870D01*
X005097Y023815D01*
X005137Y023758D01*
X005174Y023699D01*
X005208Y023638D01*
X005238Y023576D01*
X005264Y023511D01*
X005287Y023446D01*
X005306Y023379D01*
X005322Y023311D01*
X005333Y023242D01*
X005341Y023173D01*
X005345Y023104D01*
X005344Y023034D01*
X005340Y022965D01*
X005333Y022896D01*
X005321Y022827D01*
X005305Y022760D01*
X005286Y022693D01*
X005263Y022627D01*
X005236Y022563D01*
X005206Y022500D01*
X005172Y022439D01*
X005135Y022381D01*
X005095Y022324D01*
X005052Y022270D01*
X005005Y022218D01*
X004956Y022169D01*
X004904Y022122D01*
X004850Y022079D01*
X004793Y022039D01*
X004734Y022002D01*
X004673Y021968D01*
X004610Y021938D01*
X004546Y021911D01*
X004481Y021888D01*
X004414Y021869D01*
X004346Y021854D01*
X004277Y021842D01*
X004208Y021834D01*
X004139Y021830D01*
X004069Y021830D01*
X004000Y021834D01*
X003931Y021842D01*
X003862Y021854D01*
X003794Y021869D01*
X003727Y021888D01*
X003662Y021911D01*
X003598Y021938D01*
X003535Y021968D01*
X003474Y022002D01*
X003415Y022039D01*
X003358Y022079D01*
X003304Y022122D01*
X003252Y022169D01*
X003203Y022218D01*
X003156Y022270D01*
X003113Y022324D01*
X003073Y022381D01*
X003036Y022439D01*
X003002Y022500D01*
X002972Y022563D01*
X002945Y022627D01*
X002922Y022693D01*
X002903Y022760D01*
X002887Y022827D01*
X002875Y022896D01*
X002868Y022965D01*
X002864Y023034D01*
X002863Y023104D01*
X002867Y023173D01*
X002875Y023242D01*
X002886Y023311D01*
X002902Y023379D01*
X002921Y023446D01*
X002944Y023511D01*
X002970Y023576D01*
X003000Y023638D01*
X003034Y023699D01*
X003071Y023758D01*
X003111Y023815D01*
X003154Y023870D01*
X003200Y023922D01*
X003249Y023971D01*
X003301Y024017D01*
X003355Y024061D01*
X003361Y024054D01*
X003307Y024010D01*
X003256Y023964D01*
X003207Y023915D01*
X003161Y023864D01*
X003118Y023810D01*
X003078Y023753D01*
X003042Y023695D01*
X003008Y023634D01*
X002978Y023572D01*
X002952Y023508D01*
X002930Y023443D01*
X002911Y023377D01*
X002895Y023309D01*
X002884Y023241D01*
X002876Y023173D01*
X002872Y023104D01*
X002873Y023035D01*
X002877Y022966D01*
X002884Y022897D01*
X002896Y022829D01*
X002911Y022762D01*
X002931Y022695D01*
X002954Y022630D01*
X002980Y022567D01*
X003010Y022504D01*
X003043Y022444D01*
X003080Y022386D01*
X003120Y022329D01*
X003163Y022275D01*
X003209Y022224D01*
X003258Y022175D01*
X003310Y022129D01*
X003364Y022086D01*
X003420Y022046D01*
X003479Y022010D01*
X003539Y021976D01*
X003601Y021946D01*
X003665Y021920D01*
X003730Y021897D01*
X003797Y021878D01*
X003864Y021863D01*
X003932Y021851D01*
X004001Y021843D01*
X004069Y021839D01*
X004139Y021839D01*
X004207Y021843D01*
X004276Y021851D01*
X004344Y021863D01*
X004411Y021878D01*
X004478Y021897D01*
X004543Y021920D01*
X004607Y021946D01*
X004669Y021976D01*
X004729Y022010D01*
X004788Y022046D01*
X004844Y022086D01*
X004898Y022129D01*
X004950Y022175D01*
X004999Y022224D01*
X005045Y022275D01*
X005088Y022329D01*
X005128Y022386D01*
X005165Y022444D01*
X005198Y022504D01*
X005228Y022567D01*
X005254Y022630D01*
X005277Y022695D01*
X005297Y022762D01*
X005312Y022829D01*
X005324Y022897D01*
X005331Y022966D01*
X005335Y023035D01*
X005336Y023104D01*
X005332Y023173D01*
X005324Y023241D01*
X005313Y023309D01*
X005297Y023377D01*
X005278Y023443D01*
X005256Y023508D01*
X005230Y023572D01*
X005200Y023634D01*
X005166Y023695D01*
X005130Y023753D01*
X005090Y023810D01*
X005047Y023864D01*
X005001Y023915D01*
X004952Y023964D01*
X004901Y024010D01*
X004847Y024054D01*
X004842Y024046D01*
X004896Y024003D01*
X004947Y023957D01*
X004996Y023907D01*
X005042Y023856D01*
X005085Y023801D01*
X005125Y023744D01*
X005161Y023686D01*
X005195Y023625D01*
X005224Y023562D01*
X005250Y023498D01*
X005272Y023432D01*
X005291Y023365D01*
X005306Y023298D01*
X005317Y023229D01*
X005324Y023160D01*
X005327Y023091D01*
X005326Y023022D01*
X005321Y022952D01*
X005313Y022884D01*
X005300Y022816D01*
X005284Y022748D01*
X005263Y022682D01*
X005240Y022617D01*
X005212Y022553D01*
X005181Y022491D01*
X005146Y022431D01*
X005108Y022373D01*
X005067Y022317D01*
X005023Y022264D01*
X004976Y022213D01*
X004926Y022165D01*
X004873Y022120D01*
X004818Y022078D01*
X004761Y022039D01*
X004701Y022004D01*
X004640Y021972D01*
X004577Y021943D01*
X004512Y021918D01*
X004446Y021897D01*
X004379Y021879D01*
X004311Y021866D01*
X004242Y021856D01*
X004173Y021850D01*
X004104Y021848D01*
X004035Y021850D01*
X003966Y021856D01*
X003897Y021866D01*
X003829Y021879D01*
X003762Y021897D01*
X003696Y021918D01*
X003631Y021943D01*
X003568Y021972D01*
X003507Y022004D01*
X003447Y022039D01*
X003390Y022078D01*
X003335Y022120D01*
X003282Y022165D01*
X003232Y022213D01*
X003185Y022264D01*
X003141Y022317D01*
X003100Y022373D01*
X003062Y022431D01*
X003027Y022491D01*
X002996Y022553D01*
X002968Y022617D01*
X002945Y022682D01*
X002924Y022748D01*
X002908Y022816D01*
X002895Y022884D01*
X002887Y022952D01*
X002882Y023022D01*
X002881Y023091D01*
X002884Y023160D01*
X002891Y023229D01*
X002902Y023298D01*
X002917Y023365D01*
X002936Y023432D01*
X002958Y023498D01*
X002984Y023562D01*
X003013Y023625D01*
X003047Y023686D01*
X003083Y023744D01*
X003123Y023801D01*
X003166Y023856D01*
X003212Y023907D01*
X003261Y023957D01*
X003312Y024003D01*
X003366Y024046D01*
X003372Y024039D01*
X003318Y023996D01*
X003267Y023950D01*
X003218Y023901D01*
X003173Y023850D01*
X003130Y023796D01*
X003091Y023739D01*
X003054Y023681D01*
X003021Y023621D01*
X002992Y023558D01*
X002966Y023495D01*
X002944Y023429D01*
X002926Y023363D01*
X002911Y023296D01*
X002900Y023228D01*
X002893Y023159D01*
X002890Y023091D01*
X002891Y023022D01*
X002896Y022953D01*
X002904Y022885D01*
X002917Y022817D01*
X002933Y022751D01*
X002953Y022685D01*
X002977Y022620D01*
X003004Y022557D01*
X003035Y022496D01*
X003069Y022436D01*
X003107Y022378D01*
X003148Y022323D01*
X003192Y022270D01*
X003239Y022220D01*
X003288Y022172D01*
X003340Y022127D01*
X003395Y022085D01*
X003452Y022047D01*
X003511Y022012D01*
X003572Y021980D01*
X003635Y021951D01*
X003699Y021927D01*
X003765Y021905D01*
X003831Y021888D01*
X003899Y021875D01*
X003967Y021865D01*
X004035Y021859D01*
X004104Y021857D01*
X004173Y021859D01*
X004241Y021865D01*
X004309Y021875D01*
X004377Y021888D01*
X004443Y021905D01*
X004509Y021927D01*
X004573Y021951D01*
X004636Y021980D01*
X004697Y022012D01*
X004756Y022047D01*
X004813Y022085D01*
X004868Y022127D01*
X004920Y022172D01*
X004969Y022220D01*
X005016Y022270D01*
X005060Y022323D01*
X005101Y022378D01*
X005139Y022436D01*
X005173Y022496D01*
X005204Y022557D01*
X005231Y022620D01*
X005255Y022685D01*
X005275Y022751D01*
X005291Y022817D01*
X005304Y022885D01*
X005312Y022953D01*
X005317Y023022D01*
X005318Y023091D01*
X005315Y023159D01*
X005308Y023228D01*
X005297Y023296D01*
X005282Y023363D01*
X005264Y023429D01*
X005242Y023495D01*
X005216Y023558D01*
X005187Y023621D01*
X005154Y023681D01*
X005117Y023739D01*
X005078Y023796D01*
X005035Y023850D01*
X004990Y023901D01*
X004941Y023950D01*
X004890Y023996D01*
X004836Y024039D01*
M02*
