G75*
G70*
%OFA0B0*%
%FSLAX24Y24*%
%IPPOS*%
%LPD*%
%AMOC8*
5,1,8,0,0,1.08239X$1,22.5*
%
%ADD10C,0.0820*%
%ADD11C,0.1380*%
%ADD12OC8,0.0760*%
%ADD13R,0.0730X0.0730*%
%ADD14C,0.0730*%
D10*
X001508Y012262D03*
X001508Y013262D03*
X001508Y014262D03*
X001508Y015262D03*
X001508Y016262D03*
X001508Y017262D03*
X001508Y018262D03*
X001508Y019262D03*
X001508Y020762D03*
X001508Y021762D03*
X001508Y022762D03*
X001508Y023762D03*
X001508Y024762D03*
X001508Y025762D03*
X001508Y026762D03*
X001508Y027762D03*
X015008Y025262D03*
X016008Y025262D03*
X017508Y026762D03*
X017508Y022762D03*
X020508Y022762D03*
X020508Y023762D03*
X020508Y024762D03*
X020508Y025762D03*
X020508Y026762D03*
X020508Y027762D03*
X020508Y020762D03*
X020508Y019762D03*
X020508Y018762D03*
X020508Y017762D03*
X020508Y016762D03*
X020508Y015762D03*
D11*
X001508Y008762D03*
X018508Y028762D03*
D12*
X013008Y020762D03*
X013008Y019762D03*
X013008Y018762D03*
X013008Y017762D03*
X010008Y017762D03*
X010008Y018762D03*
X010008Y019762D03*
X010008Y020762D03*
D13*
X017008Y017262D03*
D14*
X017008Y018262D03*
M02*
