G75*
G70*
%OFA0B0*%
%FSLAX24Y24*%
%IPPOS*%
%LPD*%
%AMOC8*
5,1,8,0,0,1.08239X$1,22.5*
%
%ADD10C,0.0000*%
%ADD11C,0.0740*%
%ADD12OC8,0.0680*%
%ADD13R,0.0650X0.0650*%
%ADD14C,0.0650*%
D10*
X001626Y006262D02*
X020390Y006262D01*
X020455Y006264D01*
X020520Y006270D01*
X020584Y006279D01*
X020648Y006292D01*
X020711Y006309D01*
X020772Y006329D01*
X020833Y006353D01*
X020892Y006381D01*
X020949Y006412D01*
X021004Y006446D01*
X021058Y006483D01*
X021109Y006524D01*
X021157Y006567D01*
X021203Y006613D01*
X021246Y006661D01*
X021287Y006712D01*
X021324Y006766D01*
X021358Y006821D01*
X021389Y006878D01*
X021417Y006937D01*
X021441Y006998D01*
X021461Y007059D01*
X021478Y007122D01*
X021491Y007186D01*
X021500Y007250D01*
X021506Y007315D01*
X021508Y007380D01*
X021508Y027762D01*
X021507Y027762D02*
X021505Y027857D01*
X021498Y027952D01*
X021487Y028046D01*
X021471Y028140D01*
X021451Y028233D01*
X021426Y028324D01*
X021397Y028415D01*
X021364Y028504D01*
X021327Y028591D01*
X021285Y028677D01*
X021240Y028760D01*
X021190Y028841D01*
X021137Y028920D01*
X021080Y028996D01*
X021019Y029069D01*
X020956Y029139D01*
X020888Y029207D01*
X020818Y029270D01*
X020745Y029331D01*
X020669Y029388D01*
X020590Y029441D01*
X020509Y029491D01*
X020426Y029536D01*
X020340Y029578D01*
X020253Y029615D01*
X020164Y029648D01*
X020073Y029677D01*
X019982Y029702D01*
X019889Y029722D01*
X019795Y029738D01*
X019701Y029749D01*
X019606Y029756D01*
X019511Y029758D01*
X002307Y029758D01*
X002221Y029756D01*
X002136Y029750D01*
X002051Y029740D01*
X001967Y029725D01*
X001883Y029707D01*
X001800Y029685D01*
X001719Y029659D01*
X001638Y029629D01*
X001560Y029595D01*
X001483Y029558D01*
X001407Y029517D01*
X001334Y029472D01*
X001263Y029424D01*
X001195Y029373D01*
X001129Y029319D01*
X001066Y029261D01*
X001005Y029200D01*
X000947Y029137D01*
X000893Y029071D01*
X000842Y029003D01*
X000794Y028932D01*
X000749Y028859D01*
X000708Y028783D01*
X000671Y028706D01*
X000637Y028628D01*
X000607Y028547D01*
X000581Y028466D01*
X000559Y028383D01*
X000541Y028299D01*
X000526Y028215D01*
X000516Y028130D01*
X000510Y028045D01*
X000508Y027959D01*
X000508Y007380D01*
X000510Y007315D01*
X000516Y007250D01*
X000525Y007186D01*
X000538Y007122D01*
X000555Y007059D01*
X000575Y006998D01*
X000599Y006937D01*
X000627Y006878D01*
X000658Y006821D01*
X000692Y006766D01*
X000729Y006712D01*
X000770Y006661D01*
X000813Y006613D01*
X000859Y006567D01*
X000907Y006524D01*
X000958Y006483D01*
X001012Y006446D01*
X001067Y006412D01*
X001124Y006381D01*
X001183Y006353D01*
X001244Y006329D01*
X001305Y006309D01*
X001368Y006292D01*
X001432Y006279D01*
X001496Y006270D01*
X001561Y006264D01*
X001626Y006262D01*
X000858Y008762D02*
X000860Y008812D01*
X000866Y008862D01*
X000876Y008912D01*
X000889Y008960D01*
X000906Y009008D01*
X000927Y009054D01*
X000951Y009098D01*
X000979Y009140D01*
X001010Y009180D01*
X001044Y009217D01*
X001081Y009252D01*
X001120Y009283D01*
X001161Y009312D01*
X001205Y009337D01*
X001251Y009359D01*
X001298Y009377D01*
X001346Y009391D01*
X001395Y009402D01*
X001445Y009409D01*
X001495Y009412D01*
X001546Y009411D01*
X001596Y009406D01*
X001646Y009397D01*
X001694Y009385D01*
X001742Y009368D01*
X001788Y009348D01*
X001833Y009325D01*
X001876Y009298D01*
X001916Y009268D01*
X001954Y009235D01*
X001989Y009199D01*
X002022Y009160D01*
X002051Y009119D01*
X002077Y009076D01*
X002100Y009031D01*
X002119Y008984D01*
X002134Y008936D01*
X002146Y008887D01*
X002154Y008837D01*
X002158Y008787D01*
X002158Y008737D01*
X002154Y008687D01*
X002146Y008637D01*
X002134Y008588D01*
X002119Y008540D01*
X002100Y008493D01*
X002077Y008448D01*
X002051Y008405D01*
X002022Y008364D01*
X001989Y008325D01*
X001954Y008289D01*
X001916Y008256D01*
X001876Y008226D01*
X001833Y008199D01*
X001788Y008176D01*
X001742Y008156D01*
X001694Y008139D01*
X001646Y008127D01*
X001596Y008118D01*
X001546Y008113D01*
X001495Y008112D01*
X001445Y008115D01*
X001395Y008122D01*
X001346Y008133D01*
X001298Y008147D01*
X001251Y008165D01*
X001205Y008187D01*
X001161Y008212D01*
X001120Y008241D01*
X001081Y008272D01*
X001044Y008307D01*
X001010Y008344D01*
X000979Y008384D01*
X000951Y008426D01*
X000927Y008470D01*
X000906Y008516D01*
X000889Y008564D01*
X000876Y008612D01*
X000866Y008662D01*
X000860Y008712D01*
X000858Y008762D01*
X017858Y028762D02*
X017860Y028812D01*
X017866Y028862D01*
X017876Y028912D01*
X017889Y028960D01*
X017906Y029008D01*
X017927Y029054D01*
X017951Y029098D01*
X017979Y029140D01*
X018010Y029180D01*
X018044Y029217D01*
X018081Y029252D01*
X018120Y029283D01*
X018161Y029312D01*
X018205Y029337D01*
X018251Y029359D01*
X018298Y029377D01*
X018346Y029391D01*
X018395Y029402D01*
X018445Y029409D01*
X018495Y029412D01*
X018546Y029411D01*
X018596Y029406D01*
X018646Y029397D01*
X018694Y029385D01*
X018742Y029368D01*
X018788Y029348D01*
X018833Y029325D01*
X018876Y029298D01*
X018916Y029268D01*
X018954Y029235D01*
X018989Y029199D01*
X019022Y029160D01*
X019051Y029119D01*
X019077Y029076D01*
X019100Y029031D01*
X019119Y028984D01*
X019134Y028936D01*
X019146Y028887D01*
X019154Y028837D01*
X019158Y028787D01*
X019158Y028737D01*
X019154Y028687D01*
X019146Y028637D01*
X019134Y028588D01*
X019119Y028540D01*
X019100Y028493D01*
X019077Y028448D01*
X019051Y028405D01*
X019022Y028364D01*
X018989Y028325D01*
X018954Y028289D01*
X018916Y028256D01*
X018876Y028226D01*
X018833Y028199D01*
X018788Y028176D01*
X018742Y028156D01*
X018694Y028139D01*
X018646Y028127D01*
X018596Y028118D01*
X018546Y028113D01*
X018495Y028112D01*
X018445Y028115D01*
X018395Y028122D01*
X018346Y028133D01*
X018298Y028147D01*
X018251Y028165D01*
X018205Y028187D01*
X018161Y028212D01*
X018120Y028241D01*
X018081Y028272D01*
X018044Y028307D01*
X018010Y028344D01*
X017979Y028384D01*
X017951Y028426D01*
X017927Y028470D01*
X017906Y028516D01*
X017889Y028564D01*
X017876Y028612D01*
X017866Y028662D01*
X017860Y028712D01*
X017858Y028762D01*
D11*
X017508Y026762D03*
X016008Y025262D03*
X015008Y025262D03*
X017508Y022762D03*
X020508Y022762D03*
X020508Y023762D03*
X020508Y024762D03*
X020508Y025762D03*
X020508Y026762D03*
X020508Y027762D03*
X020508Y020762D03*
X020508Y019762D03*
X020508Y018762D03*
X020508Y017762D03*
X020508Y016762D03*
X020508Y015762D03*
X001508Y015262D03*
X001508Y016262D03*
X001508Y017262D03*
X001508Y018262D03*
X001508Y019262D03*
X001508Y020762D03*
X001508Y021762D03*
X001508Y022762D03*
X001508Y023762D03*
X001508Y024762D03*
X001508Y025762D03*
X001508Y026762D03*
X001508Y027762D03*
X001508Y014262D03*
X001508Y013262D03*
X001508Y012262D03*
D12*
X010008Y017762D03*
X010008Y018762D03*
X010008Y019762D03*
X010008Y020762D03*
X013008Y020762D03*
X013008Y019762D03*
X013008Y018762D03*
X013008Y017762D03*
D13*
X017008Y017262D03*
D14*
X017008Y018262D03*
M02*
