G75*
G70*
%OFA0B0*%
%FSLAX24Y24*%
%IPPOS*%
%LPD*%
%AMOC8*
5,1,8,0,0,1.08239X$1,22.5*
%
%ADD10C,0.0740*%
%ADD11OC8,0.0680*%
%ADD12R,0.0650X0.0650*%
%ADD13C,0.0650*%
%ADD14C,0.0100*%
%ADD15C,0.0240*%
D10*
X001508Y012262D03*
X001508Y013262D03*
X001508Y014262D03*
X001508Y015262D03*
X001508Y016262D03*
X001508Y017262D03*
X001508Y018262D03*
X001508Y019262D03*
X001508Y020762D03*
X001508Y021762D03*
X001508Y022762D03*
X001508Y023762D03*
X001508Y024762D03*
X001508Y025762D03*
X001508Y026762D03*
X001508Y027762D03*
X015008Y025262D03*
X016008Y025262D03*
X017508Y026762D03*
X017508Y022762D03*
X020508Y022762D03*
X020508Y023762D03*
X020508Y024762D03*
X020508Y025762D03*
X020508Y026762D03*
X020508Y027762D03*
X020508Y020762D03*
X020508Y019762D03*
X020508Y018762D03*
X020508Y017762D03*
X020508Y016762D03*
X020508Y015762D03*
D11*
X013008Y017762D03*
X013008Y018762D03*
X013008Y019762D03*
X013008Y020762D03*
X010008Y020762D03*
X010008Y019762D03*
X010008Y018762D03*
X010008Y017762D03*
D12*
X017008Y017262D03*
D13*
X017008Y018262D03*
D14*
X017508Y018762D01*
X020508Y018762D01*
X020508Y017762D02*
X016508Y017762D01*
X016008Y017262D01*
X010508Y017262D01*
X010008Y017762D01*
X010508Y018262D02*
X006508Y018262D01*
X001508Y013262D01*
X001508Y014262D02*
X006008Y018762D01*
X010008Y018762D01*
X010508Y018262D02*
X013008Y020762D01*
X010008Y020762D02*
X009008Y019762D01*
X005008Y019762D01*
X001508Y016262D01*
X001508Y015262D02*
X005508Y019262D01*
X009508Y019262D01*
X010008Y019762D01*
X017008Y017262D02*
X018508Y015762D01*
X020508Y015762D01*
D15*
X017508Y022262D02*
X017508Y022762D01*
X017508Y022262D02*
X014508Y022262D01*
X013008Y020762D01*
X014008Y022762D02*
X014008Y025262D01*
X015008Y025262D01*
X016008Y025262D02*
X017508Y026762D01*
X014008Y022762D02*
X010008Y018762D01*
M02*
