G75*
G70*
%OFA0B0*%
%FSLAX24Y24*%
%IPPOS*%
%LPD*%
%AMOC8*
5,1,8,0,0,1.08239X$1,22.5*
%
%ADD10C,0.0740*%
%ADD11OC8,0.0680*%
%ADD12R,0.0650X0.0650*%
%ADD13C,0.0650*%
%ADD14C,0.0450*%
%ADD15C,0.1457*%
%ADD16R,0.1457X0.1457*%
%ADD17C,0.0640*%
%ADD18C,0.0160*%
D10*
X001509Y012260D03*
X001509Y013260D03*
X001509Y014260D03*
X001509Y015260D03*
X001509Y016260D03*
X001509Y017260D03*
X001509Y018260D03*
X001509Y019260D03*
X001509Y020760D03*
X001509Y021760D03*
X001509Y022760D03*
X001509Y023760D03*
X001509Y024760D03*
X001509Y025760D03*
X001509Y026760D03*
X001509Y027760D03*
X004104Y023571D03*
X004104Y022571D03*
X007200Y022618D03*
X007200Y023618D03*
X010138Y023785D03*
X010138Y022785D03*
X020509Y022760D03*
X020509Y023760D03*
X020509Y024760D03*
X020509Y025760D03*
X020509Y026760D03*
X020509Y027760D03*
X020509Y020760D03*
X020509Y019760D03*
X020509Y018760D03*
X020509Y017760D03*
X020509Y016760D03*
X020509Y015760D03*
D11*
X013009Y015274D03*
X013009Y014274D03*
X013009Y013274D03*
X013009Y016274D03*
X010009Y016274D03*
X010009Y015274D03*
X010009Y014274D03*
X010009Y013274D03*
D12*
X017548Y015964D03*
D13*
X017548Y016964D03*
D14*
X011851Y026248D03*
X011847Y027111D03*
X011843Y027952D03*
X011824Y028793D03*
X009856Y028793D03*
X009874Y027952D03*
X009879Y027111D03*
X009883Y026248D03*
D15*
X012155Y020093D03*
D16*
X014155Y020093D03*
D17*
X012496Y010488D03*
X012496Y009488D03*
X011496Y009488D03*
X011496Y010488D03*
X010496Y010488D03*
X010496Y009488D03*
D18*
X008951Y008420D02*
X008951Y013964D01*
X008943Y014287D01*
X009976Y014287D01*
X010009Y014274D01*
X010875Y014408D02*
X010009Y015274D01*
X010009Y016274D02*
X011469Y014609D01*
X011496Y010488D01*
X011496Y009488D02*
X011505Y008490D01*
X011019Y008102D01*
X009286Y008111D01*
X008951Y008420D01*
X009604Y009438D02*
X009577Y011184D01*
X010875Y012481D01*
X010875Y014408D01*
X012092Y015358D02*
X013009Y016274D01*
X012092Y015358D02*
X012092Y011539D01*
X012496Y011134D01*
X012496Y010488D01*
X012496Y009488D02*
X013327Y009515D01*
X013702Y009551D01*
X013702Y012581D01*
X013009Y013274D01*
X010496Y009488D02*
X009795Y009444D01*
X009604Y009438D01*
M02*
