%
M48
M72
T01C0.0276
T02C0.0320
T03C0.0354
T04C0.0400
T05C0.1300
%
T01
X17008Y17262
X17008Y18262
T02
X13008Y17762
X13008Y18762
X13008Y19762
X13008Y20762
X10008Y20762
X10008Y19762
X10008Y18762
X10008Y17762
X15008Y25262
X16008Y25262
T03
X17508Y26762
X17508Y22762
T04
X20508Y22762
X20508Y23762
X20508Y24762
X20508Y25762
X20508Y26762
X20508Y27762
X20508Y20762
X20508Y19762
X20508Y18762
X20508Y17762
X20508Y16762
X20508Y15762
X1508Y15262
X1508Y16262
X1508Y17262
X1508Y18262
X1508Y19262
X1508Y20762
X1508Y21762
X1508Y22762
X1508Y23762
X1508Y24762
X1508Y25762
X1508Y26762
X1508Y27762
X1508Y14262
X1508Y13262
X1508Y12262
T05
X1508Y8762
X18508Y28762
M30
